<svg width="512" height="512" viewBox="0 0 512 512" fill="none" xmlns="http://www.w3.org/2000/svg" xmlns:xlink="http://www.w3.org/1999/xlink">
<g clip-path="url(#clip0_14498_11482)">
<g filter="url(#filter0_d_14498_11482)">
<rect y="70" width="512" height="380" rx="50" fill="url(#pattern0_14498_11482)" shape-rendering="crispEdges"/>
<rect x="2.5" y="72.5" width="507" height="375" rx="47.5" stroke="#7E7EBE" stroke-opacity="0.6" stroke-width="5" shape-rendering="crispEdges"/>
</g>
<rect x="40" y="110" width="432" height="300" fill="white"/>
<path d="M240.306 157L243.736 156.304C243.405 154.672 241.97 153.5 240.306 153.5V157ZM253.192 167.55L253.192 171.05L253.192 171.05L253.192 167.55ZM266.079 157V153.5C264.415 153.5 262.98 154.672 262.649 156.304L266.079 157ZM287.657 157L291.087 156.304C290.756 154.672 289.322 153.5 287.657 153.5V157ZM300.545 167.55L300.545 171.05L300.545 171.05L300.545 167.55ZM313.432 157V153.5C311.767 153.5 310.333 154.672 310.002 156.304L313.432 157ZM334.997 157L338.427 156.304C338.096 154.672 336.662 153.5 334.997 153.5V157ZM347.884 167.55L347.884 171.05L347.884 171.05L347.884 167.55ZM360.771 157V153.5C359.106 153.5 357.672 154.672 357.34 156.304L360.771 157ZM382.349 157L385.779 156.304C385.447 154.672 384.013 153.5 382.349 153.5V157ZM395.236 167.55L395.236 171.05L395.236 171.05L395.236 167.55ZM408.123 157V153.5C406.458 153.5 405.024 154.672 404.693 156.304L408.123 157ZM429.432 157H432.932C432.932 155.067 431.365 153.5 429.432 153.5V157ZM429.432 178.38L430.13 181.81C431.76 181.478 432.932 180.044 432.932 178.38H429.432ZM418.907 191.315L415.407 191.315V191.315H418.907ZM429.432 204.251H432.932C432.932 202.587 431.76 201.153 430.13 200.821L429.432 204.251ZM429.432 225.888L430.13 229.317C431.76 228.986 432.932 227.552 432.932 225.888H429.432ZM418.907 238.823L415.407 238.823V238.823H418.907ZM429.432 251.759H432.932C432.932 250.095 431.76 248.661 430.13 248.329L429.432 251.759ZM429.432 273.422L430.13 276.852C431.76 276.52 432.932 275.086 432.932 273.422H429.432ZM418.907 286.357L415.407 286.357L415.407 286.358L418.907 286.357ZM429.432 299.293H432.932C432.932 297.629 431.76 296.195 430.13 295.863L429.432 299.293ZM429.432 320.67V324.17C431.365 324.17 432.932 322.603 432.932 320.67H429.432ZM408.12 320.67L404.689 321.361C405.018 322.995 406.454 324.17 408.12 324.17V320.67ZM395.229 310.1L395.229 306.6L395.228 306.6L395.229 310.1ZM382.339 320.67V324.17C384.005 324.17 385.441 322.995 385.77 321.361L382.339 320.67ZM360.784 320.67L357.353 321.361C357.682 322.995 359.118 324.17 360.784 324.17V320.67ZM347.893 310.1L347.893 306.6L347.892 306.6L347.893 310.1ZM335.003 320.67V324.17C336.67 324.17 338.105 322.995 338.434 321.361L335.003 320.67ZM313.429 320.67L309.998 321.361C310.327 322.995 311.762 324.17 313.429 324.17V320.67ZM300.537 310.1L300.537 306.6L300.537 306.6L300.537 310.1ZM287.647 320.67V324.17C289.314 324.17 290.75 322.995 291.079 321.361L287.647 320.67ZM266.093 320.67L262.662 321.361C262.991 322.995 264.426 324.17 266.093 324.17V320.67ZM253.201 310.1L253.201 306.6L253.201 306.6L253.201 310.1ZM240.312 320.67V324.17C241.978 324.17 243.414 322.995 243.743 321.361L240.312 320.67ZM219 320.67H215.5C215.5 322.603 217.067 324.17 219 324.17V320.67ZM219 299.293L218.302 295.863C216.671 296.195 215.5 297.629 215.5 299.293H219ZM229.523 286.357L233.023 286.358L233.023 286.357L229.523 286.357ZM219 273.422H215.5C215.5 275.086 216.671 276.52 218.302 276.852L219 273.422ZM219 251.759L218.302 248.329C216.671 248.661 215.5 250.095 215.5 251.759H219ZM229.523 238.823L233.023 238.823L233.023 238.823L229.523 238.823ZM219 225.888H215.5C215.5 227.552 216.671 228.985 218.302 229.317L219 225.888ZM219 204.251L218.302 200.821C216.671 201.153 215.5 202.587 215.5 204.251H219ZM229.523 191.315L233.023 191.315L233.023 191.315L229.523 191.315ZM219 178.38H215.5C215.5 180.044 216.671 181.478 218.302 181.81L219 178.38ZM219 157V153.5C217.067 153.5 215.5 155.067 215.5 157H219ZM240.306 157L236.876 157.696C238.421 165.307 245.127 171.05 253.192 171.05L253.192 167.55L253.192 164.05C248.539 164.05 244.635 160.733 243.736 156.304L240.306 157ZM253.192 167.55L253.192 171.05C261.258 171.05 267.964 165.307 269.509 157.696L266.079 157L262.649 156.304C261.75 160.733 257.846 164.05 253.192 164.05L253.192 167.55ZM266.079 157V160.5H287.657V157V153.5H266.079V157ZM287.657 157L284.227 157.696C285.772 165.307 292.48 171.05 300.545 171.05V167.55V164.05C295.891 164.05 291.987 160.733 291.087 156.304L287.657 157ZM300.545 167.55L300.545 171.05C308.61 171.05 315.316 165.307 316.862 157.696L313.432 157L310.002 156.304C309.102 160.733 305.198 164.05 300.545 164.05L300.545 167.55ZM313.432 157V160.5H334.997V157V153.5H313.432V157ZM334.997 157L331.567 157.696C333.112 165.307 339.819 171.05 347.884 171.05L347.884 167.55L347.884 164.05C343.23 164.05 339.326 160.733 338.427 156.304L334.997 157ZM347.884 167.55L347.884 171.05C355.949 171.05 362.655 165.307 364.201 157.696L360.771 157L357.34 156.304C356.441 160.733 352.537 164.05 347.884 164.05L347.884 167.55ZM360.771 157V160.5H382.349V157V153.5H360.771V157ZM382.349 157L378.919 157.696C380.464 165.307 387.171 171.05 395.236 171.05V167.55V164.05C390.582 164.05 386.678 160.733 385.779 156.304L382.349 157ZM395.236 167.55L395.236 171.05C403.302 171.05 410.008 165.307 411.553 157.696L408.123 157L404.693 156.304C403.794 160.733 399.89 164.05 395.236 164.05L395.236 167.55ZM408.123 157V160.5H429.432V157V153.5H408.123V157ZM429.432 157H425.932V178.38H429.432H432.932V157H429.432ZM429.432 178.38L428.734 174.95C421.123 176.499 415.408 183.241 415.407 191.315L418.907 191.315L422.407 191.316C422.407 186.617 425.732 182.705 430.13 181.81L429.432 178.38ZM418.907 191.315H415.407C415.407 199.39 421.123 206.132 428.734 207.681L429.432 204.251L430.13 200.821C425.732 199.926 422.407 196.014 422.407 191.315H418.907ZM429.432 204.251H425.932V225.888H429.432H432.932V204.251H429.432ZM429.432 225.888L428.734 222.458C421.123 224.007 415.408 230.749 415.407 238.823L418.907 238.823L422.407 238.823C422.407 234.125 425.732 230.212 430.13 229.317L429.432 225.888ZM418.907 238.823H415.407C415.407 246.898 421.123 253.639 428.734 255.188L429.432 251.759L430.13 248.329C425.732 247.434 422.407 243.521 422.407 238.823H418.907ZM429.432 251.759H425.932V273.422H429.432H432.932V251.759H429.432ZM429.432 273.422L428.734 269.992C421.123 271.541 415.407 278.283 415.407 286.357L418.907 286.357L422.407 286.358C422.407 281.659 425.732 277.747 430.13 276.852L429.432 273.422ZM418.907 286.357L415.407 286.358C415.407 294.432 421.123 301.174 428.734 302.723L429.432 299.293L430.13 295.863C425.732 294.968 422.407 291.055 422.407 286.357L418.907 286.357ZM429.432 299.293H425.932V320.67H429.432H432.932V299.293H429.432ZM429.432 320.67V317.17H408.12V320.67V324.17H429.432V320.67ZM408.12 320.67L411.551 319.979C410.016 312.356 403.303 306.6 395.229 306.6V310.1V313.6C399.887 313.6 403.795 316.924 404.689 321.361L408.12 320.67ZM395.229 310.1L395.228 306.6C387.154 306.6 380.443 312.356 378.908 319.979L382.339 320.67L385.77 321.361C386.664 316.924 390.571 313.6 395.229 313.6L395.229 310.1ZM382.339 320.67V317.17H360.784V320.67V324.17H382.339V320.67ZM360.784 320.67L364.215 319.979C362.68 312.356 355.967 306.6 347.893 306.6V310.1V313.6C352.551 313.6 356.459 316.924 357.353 321.361L360.784 320.67ZM347.893 310.1L347.892 306.6C339.818 306.6 333.107 312.356 331.572 319.979L335.003 320.67L338.434 321.361C339.328 316.924 343.235 313.6 347.893 313.6L347.893 310.1ZM335.003 320.67V317.17H313.429V320.67V324.17H335.003V320.67ZM313.429 320.67L316.86 319.979C315.324 312.356 308.611 306.6 300.537 306.6V310.1V313.6C305.196 313.6 309.104 316.924 309.998 321.361L313.429 320.67ZM300.537 310.1L300.537 306.6C292.463 306.6 285.752 312.356 284.216 319.979L287.647 320.67L291.079 321.361C291.972 316.924 295.879 313.6 300.537 313.6L300.537 310.1ZM287.647 320.67V317.17H266.093V320.67V324.17H287.647V320.67ZM266.093 320.67L269.524 319.979C267.988 312.356 261.275 306.6 253.201 306.6V310.1V313.6C257.86 313.6 261.768 316.924 262.662 321.361L266.093 320.67ZM253.201 310.1L253.201 306.6C245.127 306.6 238.416 312.356 236.88 319.979L240.312 320.67L243.743 321.361C244.636 316.924 248.543 313.6 253.201 313.6L253.201 310.1ZM240.312 320.67V317.17H219V320.67V324.17H240.312V320.67ZM219 320.67H222.5V299.293H219H215.5V320.67H219ZM219 299.293L219.698 302.723C227.309 301.173 233.023 294.432 233.023 286.358L229.523 286.357L226.023 286.357C226.023 291.056 222.699 294.968 218.302 295.863L219 299.293ZM229.523 286.357L233.023 286.357C233.023 278.283 227.309 271.541 219.698 269.992L219 273.422L218.302 276.852C222.699 277.747 226.023 281.659 226.023 286.358L229.523 286.357ZM219 273.422H222.5V251.759H219H215.5V273.422H219ZM219 251.759L219.698 255.188C227.309 253.639 233.023 246.898 233.023 238.823H229.523H226.023C226.023 243.521 222.699 247.434 218.302 248.329L219 251.759ZM229.523 238.823L233.023 238.823C233.023 230.749 227.309 224.007 219.698 222.458L219 225.888L218.302 229.317C222.699 230.212 226.023 234.125 226.023 238.823L229.523 238.823ZM219 225.888H222.5V204.251H219H215.5V225.888H219ZM219 204.251L219.698 207.681C227.309 206.131 233.023 199.39 233.023 191.315H229.523H226.023C226.023 196.014 222.699 199.926 218.302 200.821L219 204.251ZM229.523 191.315L233.023 191.315C233.023 183.241 227.309 176.499 219.698 174.95L219 178.38L218.302 181.81C222.699 182.705 226.023 186.617 226.023 191.316L229.523 191.315ZM219 178.38H222.5V157H219H215.5V178.38H219ZM219 157V160.5H240.306V157V153.5H219V157Z" fill="#9090A4"/>
</g>
<defs>
<filter id="filter0_d_14498_11482" x="-6" y="64" width="528" height="396" filterUnits="userSpaceOnUse" color-interpolation-filters="sRGB">
<feFlood flood-opacity="0" result="BackgroundImageFix"/>
<feColorMatrix in="SourceAlpha" type="matrix" values="0 0 0 0 0 0 0 0 0 0 0 0 0 0 0 0 0 0 127 0" result="hardAlpha"/>
<feOffset dx="2" dy="2"/>
<feGaussianBlur stdDeviation="4"/>
<feComposite in2="hardAlpha" operator="out"/>
<feColorMatrix type="matrix" values="0 0 0 0 0.494118 0 0 0 0 0.494118 0 0 0 0 0.745098 0 0 0 0.15 0"/>
<feBlend mode="normal" in2="BackgroundImageFix" result="effect1_dropShadow_14498_11482"/>
<feBlend mode="normal" in="SourceGraphic" in2="effect1_dropShadow_14498_11482" result="shape"/>
</filter>
<clipPath id="clip0_14498_11482">
<rect width="512" height="512" fill="white"/>
</clipPath>
<pattern id="pattern0_14498_11482" patternUnits="userSpaceOnUse" patternTransform="matrix(534 0 0 415 0 70)" preserveAspectRatio="none" viewBox="0 0 534 415" width="1" height="1">
<g id="pattern0_14498_11482_inner">
<g clip-path="url(#clip1_14498_11482)">
<rect width="534" height="415" fill="white"/>
<path d="M150.352 -101L-467 516.352" stroke="#66B1FF" stroke-width="42.5027"/>
<path d="M381.993 -101L-235.359 516.352" stroke="#66B1FF" stroke-width="42.5027"/>
<path d="M613.634 -101L-3.71875 516.352" stroke="#66B1FF" stroke-width="42.5027"/>
<path d="M845.274 -101L227.922 516.352" stroke="#66B1FF" stroke-width="42.5027"/>
<path d="M266.173 -101L-351.18 516.352" stroke="#FF67A7" stroke-width="42.5027"/>
<path d="M497.809 -101L-119.543 516.352" stroke="#FF67A7" stroke-width="42.5027"/>
<path d="M729.45 -101L112.098 516.352" stroke="#FF67A7" stroke-width="42.5027"/>
<path d="M961.095 -101L343.742 516.352" stroke="#FF67A7" stroke-width="42.5027"/>
</g>
</g>
</pattern><clipPath id="clip1_14498_11482">
<rect width="534" height="415" fill="white"/>
</clipPath>
</defs>
</svg>
