<svg width="42" height="34" viewBox="0 0 42 34" fill="none" xmlns="http://www.w3.org/2000/svg">
<g clip-path="url(#clip0_14471_11205)">
<path d="M5.32543 1.64718C5.14168 1.68448 4.95793 1.72177 4.77418 1.75907C4.98435 3.02486 6.1816 4.05589 7.5 4.05716C8.81565 4.10453 10.0919 3.10935 10.3625 1.78681L9.9502 2.12381C10.4886 2.13381 11.0271 2.14358 11.5655 2.15312C12.3936 2.1678 13.2217 2.18194 14.0498 2.19554L13.5672 1.80107C13.8025 3.16253 15.0936 4.25552 16.5 4.2487C17.9045 4.29047 19.2523 3.22324 19.531 1.821L18.9502 2.29573C20.3167 2.31327 21.6833 2.32935 23.0498 2.34396L22.4218 1.8306C22.6767 3.259 24.0345 4.392 25.5 4.3775C26.9643 4.41326 28.3567 3.29593 28.6379 1.84272L27.9502 2.4049C29.3167 2.41461 30.6833 2.42285 32.0498 2.42963L31.3378 1.84764C31.6069 3.31427 33.0044 4.46532 34.5 4.44354C35.9952 4.47289 37.4049 3.32741 37.6834 1.85195L36.9502 2.45132C37.8255 2.45252 38.7009 2.45312 39.5762 2.45312C40.0508 2.45312 40.5254 2.45311 41 2.45307L40.2501 1.70312C40.2502 3.05306 40.2504 4.40299 40.2509 5.75293L40.851 5.01877C39.3751 5.29616 38.2262 6.70451 38.2523 8.20312C38.2272 9.70183 39.3781 11.1075 40.8516 11.383L40.2544 10.6523C40.2554 12.0192 40.2565 13.3861 40.2578 14.7529L40.8524 14.0256C39.3797 14.3031 38.2346 15.7088 38.2615 17.2031C38.2372 18.6976 39.3854 20.0981 40.8539 20.3719L40.2657 19.6523C40.2676 21.0192 40.2696 22.3861 40.2718 23.7529L40.8551 23.0393C39.389 23.3164 38.2501 24.7163 38.2776 26.2031C38.2542 27.6902 39.3973 29.0825 40.8575 29.354L40.2841 28.6523C40.2867 30.0026 40.2896 31.3529 40.2926 32.7031L41 31.9957C39.6501 31.9987 38.3001 32.0019 36.9502 32.0052L37.6342 32.5643C37.3587 31.1122 35.9714 29.9857 34.5 30.014C33.0282 29.992 31.6513 31.1232 31.3837 32.5679L32.0498 32.0234C30.6833 32.0273 29.3167 32.0314 27.9502 32.0356L28.6043 32.5704C28.3307 31.1323 26.9563 30.0177 25.5 30.0466C24.0432 30.0256 22.6816 31.146 22.4178 32.5748L23.0498 32.0582C21.6833 32.063 20.3167 32.0679 18.9502 32.073L19.5677 32.5778C19.2965 31.157 17.938 30.0568 16.5 30.0862C15.0614 30.0662 13.7182 31.1733 13.4587 32.5832L14.0498 32.1C12.6833 32.1056 11.3167 32.1115 9.9502 32.1174L10.5242 32.5866C10.2561 31.1862 8.91648 30.1029 7.5 30.1327C6.0829 30.1138 4.76099 31.2052 4.50649 32.5928L5.0498 32.1487C3.69987 32.1552 2.34993 32.1618 1 32.1685L1.5346 32.7031C1.52784 31.3529 1.52092 30.0026 1.51384 28.6523L1.10225 29.1559C2.46888 28.8933 3.52609 27.585 3.49556 26.2031C3.51293 24.8205 2.447 23.5326 1.0948 23.2859L1.47659 23.7529C1.46888 22.3861 1.46101 21.0192 1.45297 19.6523L1.09014 20.0963C2.42884 19.8381 3.46338 18.5558 3.43251 17.2031C3.44871 15.8496 2.40427 14.5901 1.08183 14.3498L1.41136 14.7529C1.40278 13.3861 1.39404 12.0192 1.38513 10.6523L1.07664 11.0298C2.38422 10.7767 3.39365 9.52341 3.36249 8.20312C3.3715 7.02666 2.57042 5.90774 1.46634 5.52988C1.33627 5.48374 1.20284 5.44717 1.06746 5.42055L1.33915 5.75293C1.32982 4.40299 1.32033 3.05306 1.31068 1.70312L1 2.0138C2.34993 2.00415 3.69987 1.99434 5.0498 1.98438C5.0498 1.79688 5.0498 1.60938 5.0498 1.42188C3.69987 1.41191 2.34993 1.4021 1 1.39245C0.824258 1.3937 0.688064 1.52738 0.689321 1.70312C0.67967 3.05306 0.670178 4.40299 0.660845 5.75293C0.661915 5.90756 0.78078 6.0556 0.932537 6.08531C1.03511 6.10698 1.1359 6.13614 1.23397 6.1725C2.06765 6.47142 2.65719 7.3248 2.63751 8.20312C2.6478 9.18943 1.88114 10.1037 0.923362 10.2749C0.75152 10.311 0.613726 10.4768 0.61487 10.6523C0.605964 12.0192 0.597222 13.3861 0.588642 14.7529C0.58982 14.9405 0.734133 15.1199 0.918174 15.1561C1.86177 15.3401 2.59255 16.2498 2.56749 17.2031C2.57807 18.157 1.83652 19.0424 0.909862 19.2084C0.707722 19.2507 0.545813 19.4458 0.547027 19.6523C0.538992 21.0192 0.53112 22.3861 0.523412 23.7529C0.524637 23.9702 0.692 24.178 0.905199 24.22C1.81904 24.3976 2.52833 25.2789 2.50444 26.2031C2.51536 27.1279 1.79648 27.9872 0.897749 28.1488C0.668415 28.1966 0.484929 28.4181 0.486157 28.6523C0.479079 30.0026 0.472161 31.3529 0.465402 32.7031C0.466916 33.0055 0.697589 33.2392 1 33.2377C2.34993 33.2445 3.69987 33.2511 5.0498 33.2575C5.30258 33.2563 5.54402 33.0614 5.59312 32.8134C5.76298 31.935 6.61024 31.2512 7.5 31.2735C8.39038 31.2621 9.21989 31.954 9.3762 32.8196C9.43047 33.0811 9.68315 33.29 9.9502 33.2888C11.3167 33.2948 12.6833 33.3006 14.0498 33.3063C14.3248 33.3051 14.5873 33.0928 14.6409 32.8231C14.8058 31.9669 15.6317 31.2988 16.5 31.3201C17.3688 31.3082 18.1795 31.9832 18.3327 32.8285C18.3909 33.1098 18.6629 33.3343 18.9502 33.3332C20.3167 33.3383 21.6833 33.3432 23.0498 33.348C23.3438 33.347 23.6243 33.1198 23.6818 32.8314C23.8423 31.9942 24.6499 31.3394 25.5 31.3597C26.3505 31.3473 27.1453 32.0079 27.2961 32.8359C27.3575 33.134 27.6459 33.3716 27.9502 33.3706C29.3167 33.3748 30.6833 33.3789 32.0498 33.3828C32.3597 33.3819 32.6551 33.1422 32.7159 32.8383C32.8727 32.017 33.6649 31.373 34.5 31.3923C35.3354 31.3793 36.1174 32.028 36.2662 32.842C36.3303 33.1537 36.632 33.4018 36.9502 33.401C38.3001 33.4044 39.6501 33.4075 41 33.4105C41.4002 33.4096 41.7083 33.1033 41.7074 32.7031C41.7104 31.3529 41.7133 30.0026 41.7159 28.6523C41.7153 28.3259 41.4625 28.015 41.1425 27.9507C40.3374 27.798 39.7044 27.0226 39.7224 26.2031C39.7087 25.3831 40.3449 24.6139 41.1449 24.4666C41.4701 24.4 41.7287 24.085 41.7282 23.7529C41.7304 22.3861 41.7324 21.0192 41.7343 19.6523C41.7338 19.3176 41.4743 18.9989 41.1461 18.9328C40.3493 18.7824 39.7214 18.0152 39.7385 17.2031C39.7241 16.3906 40.3542 15.6271 41.1476 15.4803C41.4792 15.4126 41.7425 15.0913 41.7422 14.7529C41.7435 13.3861 41.7446 12.0192 41.7456 10.6523C41.7453 10.3124 41.4815 9.98907 41.1484 9.92167C40.3566 9.77301 39.7313 9.01101 39.7477 8.20313C39.7326 7.39488 40.3589 6.63406 41.149 6.48709C41.4837 6.41904 41.7492 6.0945 41.7491 5.75293C41.7496 4.40299 41.7498 3.05306 41.7499 1.70313C41.7499 1.27889 41.4242 0.953149 41 0.953184C40.5254 0.953145 40.0508 0.953125 39.5762 0.953125C38.7009 0.953125 37.8255 0.953727 36.9502 0.95493C36.6091 0.955399 36.2844 1.21988 36.217 1.5543C36.0711 2.34488 35.3117 2.97462 34.5 2.96271C33.6888 2.98218 32.917 2.35802 32.7618 1.55861C32.6943 1.23431 32.3811 0.974978 32.0498 0.97662C30.6833 0.983398 29.3167 0.991643 27.9502 1.00135C27.6302 1.00363 27.3239 1.24951 27.2624 1.56353C27.1194 2.37636 26.3425 3.03425 25.5 3.02875C24.6587 3.05551 23.8473 2.41329 23.6778 1.57565C23.6167 1.28994 23.342 1.05917 23.0498 1.06229C21.6833 1.0769 20.3167 1.09298 18.9502 1.11052C18.68 1.11399 18.4198 1.31978 18.3694 1.58525C18.2237 2.44905 17.4024 3.15704 16.5 3.15755C15.5996 3.19199 14.7215 2.50976 14.5324 1.60518C14.4841 1.38591 14.2743 1.20702 14.0498 1.21071C13.2217 1.22431 12.3936 1.23845 11.5655 1.25313C11.0271 1.26267 10.4886 1.27244 9.9502 1.28244C9.75842 1.286 9.57257 1.43079 9.53791 1.61944C9.38409 2.56295 8.49121 3.34298 7.5 3.34909C6.51154 3.39162 5.53962 2.64744 5.32543 1.64718ZM4.77418 1.75907L5.32543 1.64718C5.29715 1.5221 5.17804 1.42093 5.0498 1.42188V1.98438L4.77418 1.75907Z" fill="#3B3B50"/>
</g>
<defs>
<clipPath id="clip0_14471_11205">
<rect width="42" height="34" fill="white"/>
</clipPath>
</defs>
</svg>
