<svg width="42" height="34" viewBox="0 0 42 34" fill="none" xmlns="http://www.w3.org/2000/svg">
<g clip-path="url(#clip0_14471_11225)">
<path d="M15.8502 30.4299C15.9286 30.4899 16.0274 30.5176 16.1257 30.5059C16.2239 30.4942 16.3135 30.4442 16.3747 30.3669C16.436 30.2896 16.464 30.191 16.4529 30.0927C16.4418 29.9943 16.3923 29.9045 16.3159 29.842C16.3159 29.842 16.3159 29.842 16.3159 29.842C14.9752 28.7446 13.7137 27.56 12.5523 26.2881C9.71724 23.1831 7.4338 19.5019 6.27654 15.5001C5.17569 11.7239 4.95092 6.43074 8.19389 4.66171C12.7446 2.34489 17.052 7.08556 18.9917 11.3601L19.76 13.0653L20.6075 11.3882C22.913 7.07784 26.8604 2.72338 31.6379 2.70249C36.9856 2.45199 38.231 9.31339 36.4314 13.9627C36.2742 14.4413 36.0981 14.9143 35.9021 15.3867C33.4463 21.037 28.898 25.799 23.9022 29.6844C22.5339 30.7326 21.1073 31.7118 19.6254 32.6066C19.5421 32.6568 19.4792 32.7363 19.452 32.8304C19.4247 32.9245 19.4352 33.0251 19.4813 33.1105C19.5274 33.1959 19.6057 33.2598 19.6993 33.2887C19.7929 33.3176 19.8939 33.3086 19.9816 33.2666C19.9816 33.2666 19.9816 33.2666 19.9816 33.2666C21.5708 32.5033 23.1118 31.6304 24.5946 30.6645C30.0163 27.0626 34.9802 22.3733 37.7428 16.1569C37.9611 15.639 38.1573 15.1175 38.3317 14.5864C39.2088 11.8752 39.6211 8.85384 38.7038 5.92522C37.9176 2.95472 34.7308 0.573564 31.6381 0.756755C25.5101 0.955422 21.4914 5.90585 19.0051 10.5883L20.621 10.6164C19.4294 8.17325 17.8791 5.92364 15.6524 4.21311C13.4986 2.44756 10.0662 1.90964 7.54135 3.26624C2.9032 6.24378 3.94804 11.8816 5.07082 15.8633C6.40131 20.0676 8.88294 23.8088 11.8888 26.9125C13.1203 28.1832 14.4482 29.3549 15.8502 30.4299Z" fill="#3B3B50"/>
</g>
<defs>
<clipPath id="clip0_14471_11225">
<rect width="42" height="34" fill="white"/>
</clipPath>
</defs>
</svg>
