<svg width="42" height="34" viewBox="0 0 42 34" fill="none" xmlns="http://www.w3.org/2000/svg">
<g clip-path="url(#clip0_14471_11273)">
<path d="M8.42456 11.6466C8.57241 11.6213 8.72026 11.596 8.86811 11.5706C8.63952 10.1372 8.4104 8.70376 8.18072 7.27046C7.92687 5.68634 7.67236 4.10234 7.41717 2.51844L7.05308 2.89255C10.126 3.36441 13.1993 3.83375 16.2729 4.30057C16.7658 4.37515 17.2302 4.61363 17.5764 4.96784C23.4299 10.9148 29.2963 16.8487 35.1757 22.7697C36.0081 23.5692 35.9998 25.0376 35.1662 25.8247C33.6369 27.3455 32.1085 28.8672 30.581 30.3897C29.794 31.2134 28.3416 31.21 27.5595 30.3859C26.386 29.2104 25.212 28.0354 24.0375 26.8609C19.9321 22.7554 15.77 18.7065 11.5514 14.7142C10.9042 14.1017 10.2556 13.4905 9.60572 12.8806C9.23667 12.5381 8.97322 12.075 8.86811 11.5706C8.72026 11.596 8.57241 11.6213 8.42456 11.6466C8.50687 12.2484 8.78306 12.8282 9.20874 13.2776C9.8186 13.9275 10.4298 14.5761 11.0423 15.2233C15.0347 19.4419 19.0835 23.6039 23.189 27.7094C24.3635 28.8839 25.5385 30.0579 26.714 31.2314C27.9397 32.515 30.1982 32.5117 31.4189 31.2276C32.9414 29.7001 34.4631 28.1717 35.9839 26.6424C37.2581 25.4218 37.2497 23.1793 35.9743 21.9711C30.0534 16.0917 24.1194 10.2252 18.1725 4.37179C17.692 3.89603 17.0557 3.58371 16.3886 3.49425C13.3077 3.07809 10.2264 2.66446 7.14478 2.25334L6.70221 2.19417L6.78069 2.62745C7.06709 4.20599 7.35416 5.78442 7.6419 7.36274C7.90224 8.79079 8.16313 10.2187 8.42456 11.6466ZM8.86811 11.5706L8.42456 11.6466L8.86811 11.5706V11.5706Z" fill="#3B3B50"/>
<path d="M7.63993 7.08524L7.16665 2.51303L11.8591 2.86612L7.63993 7.08524Z" fill="#3B3B50"/>
<path d="M24.0254 27.6855L32.498 19.2012" stroke="#3B3B50" stroke-width="1.2"/>
</g>
<defs>
<clipPath id="clip0_14471_11273">
<rect width="42" height="34" fill="white"/>
</clipPath>
</defs>
</svg>
