<svg width="24" height="24" viewBox="0 0 24 24" fill="none" xmlns="http://www.w3.org/2000/svg">
<g clip-path="url(#clip0_14471_11095)">
<path fill-rule="evenodd" clip-rule="evenodd" d="M12.4209 16.692C12.2501 16.2101 12.0497 15.7392 11.8209 15.282C11.2593 14.2158 10.5891 13.2105 9.82093 12.282C9.79897 12.2501 9.77082 12.2228 9.73815 12.2019C9.70548 12.181 9.66895 12.1669 9.63072 12.1604C9.59249 12.1539 9.55335 12.1551 9.51559 12.1639C9.47784 12.1728 9.44225 12.1892 9.41093 12.212C9.34853 12.2581 9.30639 12.3265 9.29334 12.4029C9.28029 12.4794 9.29735 12.5579 9.34093 12.622C9.91145 13.6013 10.403 14.6246 10.8109 15.682C10.9909 16.142 11.1709 16.582 11.3409 17.042C11.5109 17.502 11.6709 17.942 11.8309 18.402C12.1909 19.462 12.5209 20.542 12.8309 21.702C12.8393 21.7448 12.856 21.7855 12.8802 21.8217C12.9044 21.858 12.9355 21.8891 12.9717 21.9133C13.008 21.9375 13.0487 21.9542 13.0915 21.9626C13.1342 21.9709 13.1782 21.9708 13.2209 21.962C13.3079 21.945 13.3847 21.8947 13.4352 21.8219C13.4856 21.749 13.5056 21.6594 13.4909 21.572C13.348 20.4042 13.1376 19.2456 12.8609 18.102C12.7386 17.6248 12.5918 17.1541 12.4209 16.692Z" fill="#15151A"/>
<path fill-rule="evenodd" clip-rule="evenodd" d="M15.3418 12.1199C14.8068 11.6411 14.2313 11.2095 13.6218 10.8299C13.3605 10.6708 13.09 10.5273 12.8118 10.3999C12.5371 10.266 12.2531 10.1524 11.9618 10.0599C11.2856 9.85548 10.5977 9.69185 9.90183 9.56989C9.86508 9.5575 9.82623 9.5526 9.78755 9.55549C9.74888 9.55838 9.71118 9.569 9.67668 9.58671C9.64219 9.60443 9.61159 9.62888 9.58671 9.65863C9.56183 9.68837 9.54317 9.72281 9.53183 9.75989C9.51923 9.796 9.51389 9.83424 9.51612 9.87242C9.51835 9.9106 9.52812 9.94796 9.54485 9.98235C9.56158 10.0167 9.58494 10.0475 9.6136 10.0728C9.64226 10.0981 9.67564 10.1175 9.71183 10.1299C10.4418 10.4599 11.1118 10.8399 11.8218 11.1299C12.1618 11.2999 12.5218 11.4499 12.8218 11.6099C13.1218 11.7699 13.5218 11.8999 13.8718 12.0699C14.2152 12.2307 14.5491 12.411 14.8718 12.6099C14.9063 12.6448 14.9479 12.6718 14.9938 12.689C15.0397 12.7063 15.0888 12.7134 15.1378 12.71C15.1867 12.7065 15.2343 12.6925 15.2772 12.6688C15.3202 12.6452 15.3576 12.6126 15.3868 12.5732C15.416 12.5338 15.4363 12.4885 15.4464 12.4405C15.4564 12.3925 15.456 12.3429 15.445 12.2951C15.4341 12.2473 15.413 12.2024 15.3831 12.1635C15.3532 12.1247 15.3152 12.0927 15.2718 12.0699L15.3418 12.1199Z" fill="#15151A"/>
<path fill-rule="evenodd" clip-rule="evenodd" d="M9.91065 7.30781C10.6407 6.99781 11.3507 6.77781 12.0507 6.50781L13.0507 6.09781C13.3907 5.96781 13.7207 5.81781 14.0507 5.70781C14.4011 5.59219 14.7585 5.49867 15.1207 5.42781C15.1999 5.40873 15.2697 5.36179 15.3173 5.29554C15.3649 5.22929 15.387 5.14815 15.3797 5.06692C15.3725 4.98569 15.3362 4.90979 15.2777 4.85304C15.2191 4.7963 15.1421 4.7625 15.0607 4.75781C14.367 4.75816 13.6758 4.8387 13.0007 4.99781C12.7082 5.06808 12.4208 5.15829 12.1407 5.26781C11.8574 5.37177 11.5831 5.49886 11.3207 5.64781C10.7335 5.99997 10.166 6.38387 9.62065 6.79781C9.57896 6.81147 9.54076 6.83412 9.50877 6.86414C9.47677 6.89417 9.45176 6.93085 9.43548 6.97159C9.4192 7.01234 9.41205 7.05616 9.41455 7.09996C9.41704 7.14377 9.42912 7.1865 9.44992 7.22513C9.47072 7.26376 9.49975 7.29736 9.53494 7.32356C9.57014 7.34976 9.61066 7.36791 9.65364 7.37675C9.69662 7.38559 9.74101 7.38489 9.78369 7.37471C9.82637 7.36452 9.86629 7.3451 9.90065 7.31781L9.91065 7.30781Z" fill="#15151A"/>
<path fill-rule="evenodd" clip-rule="evenodd" d="M9.2814 2.00156C9.19908 1.96812 9.10695 1.96824 9.02471 2.00188C8.94248 2.03552 8.87668 2.10001 8.8414 2.18156C8.57468 2.65303 8.33756 3.14064 8.1314 3.64156C8.04966 3.86011 7.98284 4.08396 7.9314 4.31156C7.87063 4.53746 7.83046 4.7684 7.8114 5.00156C7.77641 5.53765 7.77641 6.07546 7.8114 6.61156C7.79773 6.65445 7.79388 6.69987 7.80015 6.74445C7.80642 6.78903 7.82264 6.83162 7.84761 6.86908C7.87258 6.90654 7.90567 6.9379 7.9444 6.96083C7.98314 6.98376 8.02655 6.99768 8.0714 7.00156C8.10952 7.00571 8.14808 7.00226 8.18486 6.9914C8.22164 6.98055 8.2559 6.96251 8.28565 6.93833C8.31541 6.91415 8.34008 6.88431 8.35823 6.85054C8.37638 6.81676 8.38766 6.77972 8.3914 6.74156C8.5514 6.15156 8.7714 5.62156 8.9214 5.05156C9.0114 4.72156 9.0714 4.38156 9.1414 4.05156C9.2514 3.54156 9.3214 3.05156 9.4614 2.51156C9.49229 2.46839 9.51231 2.41841 9.51977 2.36586C9.52722 2.31331 9.52189 2.25973 9.50423 2.20968C9.48656 2.15962 9.45708 2.11457 9.41829 2.07834C9.3795 2.04211 9.33254 2.01577 9.2814 2.00156Z" fill="#15151A"/>
<path fill-rule="evenodd" clip-rule="evenodd" d="M2.30202 6.00501C2.98367 6.26303 3.65126 6.55677 4.30202 6.88501C4.51202 6.99501 4.72202 7.08501 4.93202 7.17501C5.14202 7.26501 5.36202 7.34501 5.58202 7.45501C5.80202 7.56501 6.10202 7.72501 6.37202 7.89501C6.40091 7.92061 6.43456 7.94028 6.47105 7.95288C6.50754 7.96549 6.54616 7.97078 6.5847 7.96846C6.62323 7.96614 6.66094 7.95625 6.69565 7.93935C6.73036 7.92246 6.76141 7.8989 6.78702 7.87001C6.81263 7.84112 6.83229 7.80746 6.8449 7.77097C6.8575 7.73448 6.86279 7.69587 6.86047 7.65733C6.85815 7.61879 6.84826 7.58109 6.83137 7.54638C6.81447 7.51166 6.79091 7.48061 6.76202 7.45501C6.39318 7.00451 5.96996 6.60144 5.50202 6.25501C5.29293 6.11883 5.07205 6.00169 4.84202 5.90501C4.61598 5.80251 4.38185 5.71889 4.14202 5.65501C3.59576 5.51917 3.04126 5.41896 2.48202 5.35501C2.40018 5.34327 2.31687 5.36175 2.24768 5.407C2.17848 5.45224 2.12815 5.52115 2.10608 5.60082C2.08402 5.6805 2.09174 5.76548 2.1278 5.83988C2.16387 5.91427 2.2258 5.97298 2.30202 6.00501Z" fill="#15151A"/>
<path fill-rule="evenodd" clip-rule="evenodd" d="M6.23009 9.68377C6.26817 9.67918 6.30498 9.66712 6.3384 9.6483C6.37183 9.62948 6.40122 9.60426 6.4249 9.57409C6.44858 9.54391 6.46608 9.50936 6.47641 9.47242C6.48673 9.43547 6.48969 9.39686 6.48509 9.35877C6.48049 9.32069 6.46844 9.28388 6.44962 9.25046C6.4308 9.21703 6.40558 9.18764 6.3754 9.16396C6.34522 9.14028 6.31067 9.12278 6.27373 9.11245C6.23679 9.10213 6.19817 9.09918 6.16009 9.10377C5.38186 9.08817 4.60417 9.15521 3.84009 9.30377C3.49754 9.36997 3.16251 9.47048 2.84009 9.60377C2.52116 9.72728 2.21337 9.87783 1.92009 10.0538C1.25849 10.467 0.653415 10.9645 0.120089 11.5338C0.0750357 11.557 0.0359444 11.5903 0.00584806 11.6311C-0.0242483 11.6719 -0.0445403 11.7191 -0.0534535 11.769C-0.0623667 11.8189 -0.0596614 11.8702 -0.0455475 11.9189C-0.0314336 11.9676 -0.00629061 12.0124 0.0279305 12.0498C0.0621516 12.0872 0.104531 12.1162 0.151779 12.1346C0.199028 12.153 0.249875 12.1602 0.300376 12.1558C0.350878 12.1513 0.399674 12.1353 0.44298 12.1089C0.486286 12.0826 0.522937 12.0466 0.550089 12.0038C1.22458 11.5293 1.95301 11.1365 2.72009 10.8338C3.16009 10.6438 3.61009 10.4738 4.08009 10.3138C4.78202 10.0564 5.50027 9.84596 6.23009 9.68377Z" fill="#15151A"/>
<path fill-rule="evenodd" clip-rule="evenodd" d="M6.99987 11.0613C6.36054 11.4725 5.77588 11.9631 5.25987 12.5213C5.0379 12.7672 4.83718 13.0314 4.65987 13.3113C4.48549 13.5879 4.32851 13.8751 4.18987 14.1713C3.87936 14.8691 3.65116 15.6007 3.50987 16.3513C3.48494 16.4348 3.49409 16.5248 3.53531 16.6016C3.57653 16.6784 3.64648 16.7358 3.72987 16.7613C3.81606 16.7861 3.90856 16.7758 3.98723 16.7327C4.06589 16.6897 4.12435 16.6172 4.14987 16.5313C4.37954 15.9752 4.65028 15.4371 4.95987 14.9213C5.23987 14.4413 5.55987 13.9913 5.86987 13.5313C6.31433 12.8221 6.81957 12.1529 7.37987 11.5313C7.43422 11.4769 7.46475 11.4031 7.46475 11.3263C7.46475 11.2494 7.43422 11.1756 7.37987 11.1213C7.3348 11.0665 7.27126 11.0302 7.20125 11.0192C7.13123 11.0081 7.0596 11.0231 6.99987 11.0613Z" fill="#15151A"/>
<path fill-rule="evenodd" clip-rule="evenodd" d="M17.9001 10.4832C17.3353 11.2343 16.8619 12.05 16.4901 12.9132C16.3401 13.2832 16.2001 13.6632 16.0801 14.0432C15.9668 14.4214 15.8734 14.8052 15.8001 15.1932C15.6201 16.1032 15.5501 17.0132 15.4601 17.9232C15.4382 17.9642 15.4264 18.0099 15.4258 18.0564C15.4252 18.1029 15.4358 18.1488 15.4567 18.1904C15.4776 18.232 15.5082 18.2679 15.5459 18.2951C15.5836 18.3224 15.6273 18.3402 15.6733 18.347C15.7193 18.3538 15.7663 18.3494 15.8102 18.3343C15.8542 18.3191 15.8939 18.2936 15.926 18.2599C15.958 18.2262 15.9815 18.1853 15.9944 18.1406C16.0073 18.0959 16.0093 18.0488 16.0001 18.0032C16.3001 17.0032 16.6501 15.9532 17.0001 14.9132C17.2001 14.2432 17.3801 13.5632 17.6001 12.9132C17.8358 12.1983 18.1266 11.5029 18.4701 10.8332C18.4938 10.7964 18.5099 10.7553 18.5177 10.7123C18.5255 10.6693 18.5247 10.6252 18.5154 10.5825C18.5061 10.5398 18.4885 10.4993 18.4636 10.4634C18.4387 10.4275 18.4069 10.3968 18.3701 10.3732C18.3334 10.3495 18.2923 10.3334 18.2493 10.3256C18.2063 10.3178 18.1621 10.3186 18.1194 10.3279C18.0767 10.3372 18.0362 10.3548 18.0003 10.3797C17.9644 10.4047 17.9338 10.4364 17.9101 10.4732L17.9001 10.4832Z" fill="#15151A"/>
<path fill-rule="evenodd" clip-rule="evenodd" d="M21.5389 12.004C21.5095 11.8742 21.4694 11.7471 21.4189 11.624C21.3634 11.5 21.3 11.3798 21.2289 11.264C21.032 11.0067 20.8073 10.772 20.5589 10.564C20.5393 10.531 20.5134 10.5022 20.4827 10.4793C20.452 10.4564 20.417 10.4398 20.3798 10.4305C20.3426 10.4212 20.3039 10.4194 20.266 10.4251C20.2281 10.4309 20.1917 10.4441 20.1589 10.464C20.0935 10.5071 20.0469 10.5733 20.0284 10.6494C20.0098 10.7254 20.0207 10.8057 20.0589 10.874C20.1589 11.174 20.1789 11.444 20.2589 11.734C20.2918 11.8511 20.3353 11.9649 20.3889 12.074C20.4389 12.184 20.4989 12.294 20.5589 12.404C20.7189 12.664 20.8889 12.894 21.0689 13.154C21.1007 13.2362 21.1639 13.3024 21.2445 13.3381C21.3252 13.3737 21.4167 13.3758 21.4989 13.344C21.5811 13.3122 21.6473 13.249 21.683 13.1684C21.7186 13.0877 21.7207 12.9962 21.6889 12.914C21.6389 12.614 21.6089 12.324 21.5389 12.004Z" fill="#15151A"/>
<path fill-rule="evenodd" clip-rule="evenodd" d="M23.7383 8.52237C23.4516 8.37325 23.1453 8.26551 22.8283 8.20237C22.689 8.18254 22.5476 8.18254 22.4083 8.20237C22.2685 8.20868 22.1303 8.23564 21.9983 8.28237C21.6976 8.3943 21.4146 8.54925 21.1583 8.74237C21.1212 8.75371 21.0868 8.77237 21.0571 8.79725C21.0273 8.82213 21.0029 8.85273 20.9852 8.88723C20.9674 8.92172 20.9568 8.95942 20.9539 8.9981C20.951 9.03677 20.9559 9.07563 20.9683 9.11237C20.9808 9.14983 21.0005 9.18447 21.0263 9.2143C21.0521 9.24414 21.0836 9.26858 21.1189 9.28623C21.1542 9.30388 21.1926 9.31439 21.232 9.31716C21.2714 9.31993 21.3109 9.31491 21.3483 9.30237C21.6581 9.28676 21.9685 9.28676 22.2783 9.30237L22.7783 9.25237C23.0462 9.20538 23.3167 9.17532 23.5883 9.16237C23.6758 9.18021 23.7668 9.16295 23.8416 9.1143C23.9164 9.06566 23.9691 8.98954 23.9883 8.90237C24.0034 8.81905 23.9858 8.73315 23.9393 8.66242C23.8927 8.59169 23.8208 8.54155 23.7383 8.52237Z" fill="#15151A"/>
<path fill-rule="evenodd" clip-rule="evenodd" d="M21.0006 7.44095C21.3906 7.15095 21.7706 6.96095 22.1306 6.72095C22.4906 6.48095 22.5306 6.42095 22.7306 6.28095C23.0431 6.03382 23.3779 5.81622 23.7306 5.63095C23.7718 5.61849 23.81 5.59787 23.843 5.57031C23.876 5.54275 23.9031 5.50883 23.9227 5.47056C23.9423 5.43229 23.954 5.39046 23.9571 5.34758C23.9601 5.30469 23.9545 5.26163 23.9406 5.22095C23.9297 5.17088 23.9074 5.12403 23.8753 5.08411C23.8431 5.04419 23.8022 5.01229 23.7556 4.99095C23.709 4.9696 23.6581 4.95939 23.6069 4.96113C23.5557 4.96286 23.5056 4.9765 23.4606 5.00095C23.0268 5.06032 22.6029 5.17805 22.2006 5.35095C22.0268 5.42461 21.8623 5.51859 21.7106 5.63095C21.5561 5.73693 21.4121 5.85748 21.2806 5.99095C21.0137 6.3064 20.7697 6.64059 20.5506 6.99095C20.4956 7.04703 20.4648 7.12243 20.4648 7.20095C20.4648 7.27948 20.4956 7.35487 20.5506 7.41095C20.5755 7.4463 20.608 7.47564 20.6457 7.49683C20.6833 7.51801 20.7253 7.53049 20.7684 7.53337C20.8116 7.53624 20.8548 7.52944 20.895 7.51345C20.9352 7.49746 20.9712 7.47269 21.0006 7.44095Z" fill="#15151A"/>
<path fill-rule="evenodd" clip-rule="evenodd" d="M18.6693 6.31811C18.6076 6.20387 18.5339 6.09658 18.4493 5.99811C18.3666 5.90725 18.2762 5.82362 18.1793 5.74811C17.9451 5.57851 17.6976 5.42802 17.4393 5.29811C17.4093 5.2657 17.373 5.23983 17.3325 5.22214C17.2921 5.20445 17.2484 5.19531 17.2043 5.19531C17.1601 5.19531 17.1165 5.20445 17.076 5.22214C17.0356 5.23983 16.9992 5.2657 16.9693 5.29811C16.9088 5.36139 16.875 5.44556 16.875 5.53311C16.875 5.62067 16.9088 5.70484 16.9693 5.76811C17.1293 5.99811 17.2393 6.21811 17.3893 6.44811C17.5393 6.67811 17.4993 6.61811 17.5693 6.70811C17.6374 6.78958 17.7109 6.86642 17.7893 6.93811C17.9793 7.11811 18.1893 7.23811 18.3993 7.43811C18.4377 7.50574 18.5015 7.55533 18.5765 7.57596C18.6515 7.59659 18.7317 7.58657 18.7993 7.54811C18.8669 7.50966 18.9165 7.44591 18.9371 7.3709C18.9578 7.29588 18.9477 7.21574 18.9093 7.14811C18.8609 6.86326 18.7804 6.58481 18.6693 6.31811Z" fill="#15151A"/>
<path fill-rule="evenodd" clip-rule="evenodd" d="M14.8014 8.26781C14.7987 8.31197 14.8049 8.35623 14.8197 8.39794C14.8344 8.43965 14.8574 8.47797 14.8872 8.51062C14.9171 8.54327 14.9532 8.56959 14.9934 8.588C15.0337 8.60642 15.0772 8.61656 15.1214 8.61781C15.3514 8.69781 15.5414 8.79781 15.7614 8.86781L16.0314 8.93781C16.1245 8.94738 16.2183 8.94738 16.3114 8.93781C16.5426 8.9278 16.7729 8.90443 17.0014 8.86781C17.0389 8.87816 17.0781 8.88058 17.1166 8.87493C17.1551 8.86927 17.192 8.85566 17.2249 8.83496C17.2578 8.81426 17.2861 8.78693 17.3079 8.75471C17.3296 8.72249 17.3445 8.68608 17.3514 8.64781C17.3696 8.57357 17.3577 8.49516 17.3184 8.42961C17.2791 8.36407 17.2155 8.31671 17.1414 8.29781C16.9376 8.14753 16.7199 8.01695 16.4914 7.90781C16.3956 7.86722 16.2947 7.84029 16.1914 7.82781C16.085 7.81781 15.9778 7.81781 15.8714 7.82781C15.6225 7.85742 15.3755 7.90082 15.1314 7.95781C15.0486 7.96202 14.97 7.99549 14.9095 8.05227C14.8491 8.10904 14.8108 8.18543 14.8014 8.26781Z" fill="#15151A"/>
</g>
<defs>
<clipPath id="clip0_14471_11095">
<rect width="24" height="24" fill="white"/>
</clipPath>
</defs>
</svg>
