<svg width="24" height="24" viewBox="0 0 24 24" fill="none" xmlns="http://www.w3.org/2000/svg">
<g clip-path="url(#clip0_14471_11121)">
<path fill-rule="evenodd" clip-rule="evenodd" d="M23.199 8.83795L22.819 8.15795C22.6108 7.81964 22.3548 7.51315 22.059 7.24795C21.629 6.80795 21.299 7.13795 19.059 8.47795C18.9249 8.51842 18.7878 8.54851 18.649 8.56795L18.849 7.93795C19.269 6.58795 17.849 4.20795 17.639 4.10795C17.099 3.83795 16.559 4.51795 16.069 4.93795C13.669 6.99795 12.999 5.15795 13.299 2.07795C13.299 1.66795 13.609 1.07795 13.429 0.567946C13.069 -0.432054 11.809 0.0479463 10.959 0.567946C10.3995 0.908669 9.85876 1.2792 9.33903 1.67795C8.12603 2.56612 7.1478 3.73656 6.48902 5.08795C4.87902 8.52795 6.20902 12.0879 4.11902 10.6779C3.44265 10.0994 2.73491 9.5586 1.99902 9.05795C0.899025 8.54795 0.409025 9.63795 0.209025 10.8379C0.0134049 12.1625 -0.0134761 13.5066 0.129025 14.8379C0.698393 17.5583 2.23285 19.9807 4.44902 21.6579C5.70721 22.4819 7.10245 23.0746 8.56903 23.4079C9.56903 23.6679 12.079 24.4079 11.779 23.5879C11.679 23.3279 6.90902 22.7779 4.89902 21.1079C2.88215 19.5209 1.49895 17.2652 0.999025 14.7479C0.85476 13.2428 0.969761 11.7242 1.33903 10.2579C1.44903 9.93795 1.33903 9.69795 2.06903 10.2579C3.23902 11.1979 4.61902 12.7479 5.76902 11.7579C7.46902 10.2979 5.41903 6.05795 10.049 2.59795C10.7232 1.99658 11.4985 1.51922 12.339 1.18795C11.429 5.60795 13.339 8.81795 16.799 5.78795C16.799 5.78795 17.039 5.64795 17.229 5.52795C17.6871 6.13506 17.9044 6.8902 17.839 7.64795L17.439 8.79795C17.439 8.79795 17.299 9.10795 17.279 9.21795C17.159 9.71795 17.619 10.0279 18.189 9.90795C19.3216 9.5065 20.3921 8.94769 21.369 8.24795C21.589 8.10795 21.369 7.90795 21.989 8.63795C22.9913 10.7119 23.34 13.0414 22.989 15.3179C22.7339 17.3903 21.8188 19.3257 20.379 20.8379C19.5186 21.6354 18.4949 22.236 17.379 22.5979C14.479 23.5979 13.549 22.8979 13.549 23.5979C13.549 23.6881 13.5848 23.7746 13.6486 23.8384C13.7124 23.9021 13.7989 23.9379 13.889 23.9379C16.4463 23.9387 18.9231 23.0435 20.889 21.4079C24.069 18.2579 24.679 12.9979 23.199 8.83795Z" fill="#15151A"/>
</g>
<defs>
<clipPath id="clip0_14471_11121">
<rect width="24" height="24" fill="white"/>
</clipPath>
</defs>
</svg>
