<svg width="24" height="24" viewBox="0 0 24 24" fill="none" xmlns="http://www.w3.org/2000/svg">
<path fill-rule="evenodd" clip-rule="evenodd" d="M20.7696 6.42C20.286 6.23839 19.7759 6.13705 19.2596 6.12C17.5996 6 14.9396 6 13.7496 6C14.1596 5.09 14.9696 3.3 15.3596 2.48C15.4096 2.36 15.6196 2.09 15.6196 1.88C15.6196 1.67 15.2096 1.26 14.9296 1.75C14.9296 1.81 14.8196 1.96 14.7196 2.17C14.1596 3.3 12.7896 6.23 12.7896 6.23C12.7597 6.28889 12.7442 6.35398 12.7442 6.42C12.7442 6.48603 12.7597 6.55112 12.7896 6.61C12.8248 6.6649 12.8738 6.70953 12.9317 6.73938C12.9897 6.76924 13.0545 6.78325 13.1196 6.78C15.3705 6.7598 17.6207 6.86663 19.8596 7.1H19.9996C19.96 7.17548 19.9166 7.24891 19.8696 7.32C19.2426 8.12348 18.5751 8.89448 17.8696 9.63C16.5996 10.98 15.0496 12.53 13.7496 13.8C12.6396 14.93 6.9996 20.2 4.5196 22.19L4.1296 22.49C4.3642 21.6936 4.70029 20.9307 5.1296 20.22C6.2596 18.14 8.0696 15.41 9.6996 12.72C9.80258 12.5869 9.85845 12.4233 9.85845 12.255C9.85845 12.0867 9.80258 11.9231 9.6996 11.79C9.56466 11.6259 9.37762 11.513 9.1696 11.47C8.78754 11.4258 8.40165 11.4258 8.0196 11.47L4.7496 11.55H4.0996C4.1796 11.37 4.2996 11.15 4.3796 10.93C5.2796 8.4 7.6896 2.47 8.4596 0.930003C8.8896 0.820003 9.9096 0.800003 9.9996 0.790003C10.7496 0.730003 11.5196 0.700003 12.2896 0.680003H15.7896C15.833 0.680207 15.8759 0.671311 15.9156 0.653891C15.9553 0.636471 15.9909 0.610913 16.0201 0.578871C16.0493 0.546828 16.0715 0.509012 16.0852 0.467867C16.0989 0.426722 16.1038 0.383162 16.0996 0.340003C16.1038 0.296845 16.0989 0.253285 16.0852 0.21214C16.0715 0.170995 16.0493 0.133179 16.0201 0.101136C15.9909 0.0690934 15.9553 0.0435361 15.9156 0.0261158C15.8759 0.00869558 15.833 -0.000200157 15.7896 3.41664e-06H11.6896C11.1096 3.41664e-06 10.5196 3.41982e-06 9.9196 0.0700034H8.3096C8.13057 0.0860629 7.96518 0.172351 7.8496 0.310003C7.1296 1.6 4.4396 7.87 3.4296 10.51C3.28129 10.8688 3.1544 11.2361 3.0496 11.61C3.01454 11.7147 3.00906 11.8271 3.03376 11.9347C3.05846 12.0423 3.11239 12.1411 3.1896 12.22C3.35623 12.3588 3.55611 12.4518 3.7696 12.49C4.10219 12.5214 4.437 12.5214 4.7696 12.49L7.9996 12.5C8.14211 12.5168 8.28272 12.5469 8.4196 12.59C6.5096 15.66 4.4196 18.73 3.4796 20.8C3.17655 21.3902 2.9834 22.0306 2.9096 22.69C2.87996 22.9139 2.90961 23.1416 2.9956 23.3505C3.08159 23.5593 3.2209 23.7419 3.3996 23.88C3.50987 23.9461 3.63603 23.981 3.7646 23.981C3.89316 23.981 4.01932 23.9461 4.1296 23.88C4.53448 23.6468 4.9162 23.3756 5.2696 23.07C7.7496 21.07 13.3896 15.66 14.5096 14.53C16.2996 12.73 18.5096 10.36 19.8896 8.78C20.427 8.24462 20.8371 7.59528 21.0896 6.88C21.0814 6.78198 21.0474 6.68785 20.9913 6.6071C20.9351 6.52635 20.8586 6.46182 20.7696 6.42Z" fill="#15151A"/>
</svg>
