<svg width="24" height="24" viewBox="0 0 24 24" fill="none" xmlns="http://www.w3.org/2000/svg">
<path d="M18.7141 1.70227C20.7688 1.57644 22.9086 3.17462 23.4279 5.14856C24.037 7.09402 23.7624 9.08728 23.1848 10.8741C23.0698 11.2242 22.941 11.5682 22.7971 11.9093C20.9747 16.0041 17.7059 19.0688 14.1379 21.4122C13.1622 22.0403 12.1486 22.6066 11.1037 23.0997C11.0381 23.1306 10.9627 23.1369 10.8928 23.1154C10.8229 23.0937 10.7642 23.0462 10.7297 22.9825C10.6952 22.9187 10.6869 22.843 10.7072 22.7726C10.7275 22.7023 10.7743 22.6426 10.8361 22.6046C11.8007 22.0128 12.7294 21.3677 13.6193 20.6779C16.868 18.1218 19.8239 15.0014 21.4162 11.3312C21.5433 11.0243 21.658 10.717 21.76 10.4064C22.925 7.37361 22.1181 2.99855 18.7141 3.16125C15.6524 3.16642 13.0724 5.9874 11.5725 8.79016L10.9357 10.048L10.3605 8.76867C9.09751 5.98305 6.32138 2.93187 3.40449 4.41711C1.34925 5.51684 1.45677 8.96377 2.17598 11.4249C2.92496 14.0338 4.41007 16.4399 6.25703 18.4718C7.01361 19.3041 7.83583 20.0799 8.71016 20.7989C8.76726 20.8459 8.8044 20.9137 8.8127 20.9874C8.82093 21.061 8.79986 21.1346 8.7541 21.1925C8.70824 21.2504 8.64117 21.2882 8.56758 21.297C8.49394 21.3058 8.41933 21.2852 8.36055 21.2404C7.44023 20.538 6.56814 19.7719 5.75898 18.9405C3.78392 16.9097 2.15058 14.4582 1.27168 11.6974C0.535955 9.08212 -0.186385 5.37633 2.91523 3.37024C4.58541 2.46794 6.87842 2.82572 8.30195 3.99328C9.43108 4.85943 10.2929 5.92881 10.9885 7.10559C12.6441 4.38649 15.1168 1.8246 18.7141 1.70227Z" fill="#15151A"/>
</svg>
