<svg width="24" height="24" viewBox="0 0 24 24" fill="none" xmlns="http://www.w3.org/2000/svg">
<g clip-path="url(#clip0_14471_11047)">
<path d="M16.0601 22.2481C15.2218 22.5234 14.3572 22.711 13.4801 22.8081C12.606 22.9031 11.7242 22.9031 10.8501 22.8081C9.76045 22.7071 8.69015 22.4546 7.67014 22.0581C6.66502 21.6667 5.73477 21.1051 4.92014 20.3981C2.87963 18.5369 1.57991 16.0014 1.26014 13.2581C0.803512 10.5435 1.42811 7.75791 3.00014 5.49813C3.83998 4.32966 4.89148 3.32903 6.10014 2.54813C7.30585 1.76864 8.67425 1.27601 10.1001 1.10812C10.8101 0.998125 11.5101 0.998125 12.2201 0.998125C12.6814 0.994851 13.1424 1.02157 13.6001 1.07812C13.6452 1.09405 13.6933 1.09899 13.7407 1.09254C13.788 1.08609 13.8331 1.06844 13.8722 1.04106C13.9113 1.01367 13.9433 0.977341 13.9656 0.935087C13.9878 0.892834 13.9997 0.845878 14.0001 0.798125C14.0058 0.758678 14.0035 0.718506 13.9934 0.679956C13.9833 0.641407 13.9656 0.605251 13.9414 0.573599C13.9172 0.541948 13.887 0.515435 13.8524 0.495609C13.8178 0.475782 13.7797 0.46304 13.7401 0.458125C13.2373 0.377711 12.7293 0.334261 12.2201 0.328125C11.4901 0.328125 10.7701 0.328125 10.0401 0.398125C8.48422 0.52183 6.97815 1.00446 5.64014 1.80812C4.30889 2.60784 3.14156 3.65301 2.20014 4.88812C1.30947 6.1052 0.667337 7.48584 0.310442 8.95117C-0.0464528 10.4165 -0.11112 11.9378 0.120137 13.4281C0.503444 16.4316 1.97676 19.1896 4.26014 21.1781C5.17993 21.9351 6.22593 22.5241 7.35014 22.9181C8.45407 23.3194 9.60847 23.5651 10.7801 23.6481C11.7111 23.7094 12.6459 23.6759 13.5701 23.5481C14.4936 23.4265 15.4019 23.2086 16.2801 22.8981C16.3663 22.869 16.4374 22.8067 16.4777 22.7252C16.518 22.6436 16.5243 22.5493 16.4951 22.4631C16.466 22.3769 16.4037 22.3059 16.3222 22.2655C16.2406 22.2252 16.1463 22.219 16.0601 22.2481Z" fill="#15151A"/>
<path d="M23.2698 16.0018C23.0505 15.8464 22.8008 15.7393 22.537 15.6876C22.2733 15.6359 22.0016 15.6407 21.7398 15.7018C21.4886 15.7802 21.2615 15.9213 21.0798 16.1118C20.8877 16.302 20.7137 16.5095 20.5598 16.7318C20.4987 16.5793 20.4251 16.4322 20.3398 16.2918C20.1996 16.0268 19.9928 15.8028 19.7398 15.6418C19.4493 15.4742 19.1181 15.3902 18.7828 15.3991C18.4475 15.4079 18.1212 15.5092 17.8398 15.6918C17.5587 15.8728 17.3226 16.1154 17.1493 16.4013C16.976 16.6872 16.8702 17.0089 16.8398 17.3418C16.9598 18.2301 17.3039 19.0732 17.8398 19.7918C18.1937 20.3962 18.5809 20.9805 18.9998 21.5418C19.0769 21.6557 19.1793 21.7502 19.299 21.8178C19.4188 21.8855 19.5525 21.9245 19.6898 21.9318C20.8735 21.4413 21.9351 20.6971 22.7998 19.7518C23.4427 19.1304 23.8642 18.3155 23.9998 17.4318C24.0119 17.1507 23.951 16.8713 23.8231 16.6207C23.6952 16.3701 23.5046 16.1569 23.2698 16.0018ZM22.0498 19.0018C21.3886 19.6647 20.634 20.2273 19.8098 20.6718C19.2956 20.0328 18.8181 19.3651 18.3798 18.6718C18.093 18.2928 17.8917 17.8561 17.7898 17.3918C17.7971 17.1959 17.8485 17.0043 17.9403 16.8311C18.0321 16.6579 18.1618 16.5077 18.3198 16.3918C18.4744 16.2724 18.6588 16.198 18.8529 16.1769C19.047 16.1557 19.2432 16.1885 19.4198 16.2718C19.5745 16.3626 19.7049 16.4896 19.7998 16.6418C19.9739 16.9226 20.118 17.2209 20.2298 17.5318C20.2429 17.5921 20.2736 17.6472 20.3182 17.69C20.3627 17.7327 20.419 17.7612 20.4798 17.7718C20.7698 17.7718 21.1198 17.1318 21.4798 16.7718C21.5971 16.6296 21.7485 16.5196 21.9198 16.4518C22.0697 16.4313 22.2222 16.4411 22.3682 16.4806C22.5142 16.5201 22.6508 16.5885 22.7698 16.6818C22.8773 16.762 22.9623 16.8685 23.0166 16.9911C23.0709 17.1138 23.0927 17.2483 23.0798 17.3818C22.9128 18.0155 22.5529 18.5817 22.0498 19.0018Z" fill="#15151A"/>
<path d="M14.5493 1.25074C16.2748 1.54775 17.8921 2.29258 19.2393 3.41074C19.7668 3.84787 20.2522 4.33331 20.6894 4.86074C21.3494 5.6465 21.8703 6.53937 22.2293 7.50074C22.5911 8.37776 22.8495 9.29393 22.9993 10.2307C23.1477 11.1765 23.2079 12.1339 23.1793 13.0907C23.1764 13.1697 23.2038 13.2468 23.2558 13.3063C23.3079 13.3658 23.3807 13.4031 23.4593 13.4107C23.4988 13.4135 23.5383 13.4084 23.5758 13.3957C23.6132 13.3831 23.6478 13.3632 23.6775 13.3372C23.7073 13.3112 23.7316 13.2796 23.749 13.2441C23.7665 13.2087 23.7768 13.1702 23.7794 13.1307C23.8899 12.1346 23.91 11.1305 23.8393 10.1307C23.7653 9.11376 23.5808 8.10785 23.2894 7.13074C22.9112 6.03295 22.3312 5.01549 21.5793 4.13074C21.0836 3.54847 20.5196 3.02805 19.8993 2.58074C18.3618 1.45958 16.5529 0.769144 14.6593 0.580737C14.6147 0.575164 14.5693 0.578529 14.5259 0.590637C14.4825 0.602744 14.442 0.623353 14.4066 0.651265C14.3713 0.679177 14.3418 0.713836 14.32 0.75323C14.2981 0.792623 14.2843 0.835965 14.2793 0.880737C14.2702 0.964963 14.2928 1.04958 14.3427 1.11802C14.3926 1.18647 14.4663 1.23379 14.5493 1.25074Z" fill="#15151A"/>
<path d="M5.91974 8.19618C4.91974 8.79618 4.30974 10.3762 5.45974 11.1962C5.69864 11.3339 5.96264 11.4225 6.23626 11.4568C6.50987 11.4911 6.78758 11.4704 7.05307 11.3958C7.31856 11.3213 7.56649 11.1945 7.78229 11.0228C7.99809 10.8512 8.17742 10.6381 8.30974 10.3962C8.49076 9.99044 8.51532 9.53209 8.37871 9.10933C8.2421 8.68657 7.95396 8.32927 7.56974 8.10618C7.30927 7.98146 7.02159 7.92432 6.73323 7.94005C6.44486 7.95578 6.1651 8.04387 5.91974 8.19618Z" fill="#15151A"/>
<path d="M18.1815 9.11765C18.1887 9.16132 18.2046 9.20309 18.2283 9.24048C18.2519 9.27788 18.2829 9.31013 18.3193 9.33532C18.3556 9.36051 18.3967 9.37812 18.4401 9.38711C18.4834 9.3961 18.5281 9.39629 18.5715 9.38765C18.6603 9.37294 18.7396 9.32362 18.7921 9.25052C18.8446 9.17741 18.8659 9.08648 18.8515 8.99765C18.8154 8.63741 18.6905 8.29174 18.4881 7.99158C18.2856 7.69142 18.012 7.44612 17.6915 7.27765C17.0754 6.9622 16.3772 6.84352 15.6915 6.93765C15.0926 7.08244 14.5457 7.39053 14.1115 7.82765C13.6809 8.25266 13.4032 8.80821 13.3215 9.40765C13.3143 9.44639 13.3147 9.48617 13.3229 9.52473C13.3311 9.56329 13.3467 9.59986 13.369 9.63236C13.414 9.69799 13.4833 9.74306 13.5615 9.75765C13.6397 9.77224 13.7206 9.75515 13.7862 9.71014C13.8187 9.68785 13.8465 9.65938 13.868 9.62636C13.8895 9.59333 13.9043 9.55639 13.9115 9.51765C14.0728 9.10636 14.3598 8.75643 14.7315 8.51765C15.0662 8.26151 15.4632 8.09927 15.8815 8.04765C16.1667 8.00743 16.4562 8.00743 16.7415 8.04765C17.0213 8.06736 17.2939 8.14572 17.5415 8.27765C17.8542 8.46574 18.0831 8.76625 18.1815 9.11765Z" fill="#15151A"/>
<path d="M15.6194 15.5749C15.7575 15.353 15.8462 15.1041 15.8794 14.8449C15.9071 14.5448 15.8667 14.2423 15.761 13.96C15.6554 13.6778 15.4874 13.4231 15.2694 13.2149C15.0641 12.9952 14.8085 12.8285 14.5246 12.7293C14.2407 12.63 13.937 12.601 13.6394 12.6449C13.2817 12.7122 12.9415 12.8517 12.6394 13.0549C12.2397 13.3389 11.8799 13.6753 11.5694 14.0549C11.3523 14.2968 11.1486 14.5505 10.9594 14.8149C10.6896 15.1952 10.4393 15.5891 10.2094 15.9949C10.1841 16.0283 10.166 16.0667 10.1564 16.1076C10.1468 16.1485 10.1459 16.191 10.1537 16.2322C10.1616 16.2735 10.178 16.3126 10.2019 16.3471C10.2258 16.3817 10.2567 16.4108 10.2926 16.4326C10.3285 16.4544 10.3686 16.4684 10.4102 16.4738C10.4519 16.4791 10.4942 16.4757 10.5344 16.4636C10.5747 16.4516 10.6119 16.4312 10.6438 16.4039C10.6757 16.3765 10.7014 16.3428 10.7194 16.3049C10.9261 15.9849 11.1461 15.6749 11.3794 15.3749C11.6055 15.0837 11.8565 14.8127 12.1294 14.5649C12.3744 14.3158 12.646 14.0945 12.9394 13.9049C13.1924 13.7394 13.4796 13.6334 13.7794 13.5949C13.9165 13.596 14.0516 13.628 14.1745 13.6886C14.2974 13.7492 14.4051 13.8368 14.4894 13.9449C14.5804 14.0443 14.6503 14.1612 14.695 14.2883C14.7397 14.4155 14.7582 14.5504 14.7494 14.6849C14.7322 14.8179 14.6766 14.943 14.5894 15.0449C14.4796 15.1932 14.3557 15.3305 14.2194 15.4549C14.0976 15.538 13.9807 15.6281 13.8694 15.7249C13.7916 15.792 13.7317 15.8774 13.695 15.9734C13.6583 16.0694 13.6461 16.173 13.6594 16.2749C13.701 16.4696 13.7827 16.6535 13.8994 16.8149C14.0494 17.0349 14.2894 17.2549 14.4094 17.4349C14.5518 17.6466 14.6598 17.8794 14.7294 18.1249C14.7997 18.358 14.8268 18.602 14.8094 18.8449C14.7864 19.1722 14.6345 19.4771 14.3871 19.6926C14.1396 19.9082 13.8169 20.0169 13.4894 19.9949C13.1113 19.9943 12.7388 19.9032 12.403 19.7292C12.0673 19.5552 11.778 19.3034 11.5594 18.9949C11.5117 18.918 11.4354 18.8632 11.3472 18.8425C11.2591 18.8219 11.1664 18.8371 11.0894 18.8849C11.0125 18.9326 10.9577 19.009 10.9371 19.0971C10.9165 19.1852 10.9317 19.278 10.9794 19.3549C11.3084 19.8641 11.7756 20.2691 12.3264 20.5223C12.8772 20.7756 13.4888 20.8667 14.0894 20.7849C14.5316 20.7115 14.9385 20.4979 15.25 20.1755C15.5615 19.8532 15.7612 19.4393 15.8194 18.9949C15.8993 18.6157 15.8993 18.2241 15.8194 17.8449C15.7356 17.489 15.5901 17.1505 15.3894 16.8449L15.0094 16.3449C15.252 16.1219 15.4579 15.862 15.6194 15.5749Z" fill="#15151A"/>
</g>
<defs>
<clipPath id="clip0_14471_11047">
<rect width="24" height="24" fill="white"/>
</clipPath>
</defs>
</svg>
