<svg width="24" height="24" viewBox="0 0 24 24" fill="none" xmlns="http://www.w3.org/2000/svg">
<path d="M19.6187 7.10111C19.5515 6.72037 19.3661 6.37048 19.0887 6.10111C18.7796 5.93939 18.4375 5.85046 18.0887 5.84111C15.9905 5.71963 13.887 5.71963 11.7887 5.84111C8.69873 5.98111 5.60873 6.39111 4.78873 6.99111C4.64798 7.09109 4.55125 7.24155 4.51873 7.41111C4.41364 7.98155 4.36673 8.56119 4.37873 9.14111C4.35201 11.5859 4.46888 14.0301 4.72873 16.4611C4.74607 16.542 4.79408 16.6131 4.86269 16.6593C4.93129 16.7056 5.01515 16.7235 5.09666 16.7093C5.17818 16.695 5.25101 16.6498 5.29988 16.583C5.34874 16.5162 5.36983 16.4331 5.35873 16.3511C5.23774 15.1617 5.18099 13.9666 5.18873 12.7711C5.18873 11.2111 5.18873 9.52111 5.28873 8.46111C5.28391 8.39787 5.28391 8.33435 5.28873 8.27111C6.36873 9.02111 8.22873 10.2711 9.78873 11.1711C10.5924 11.6788 11.4904 12.0189 12.4287 12.1711C13.2627 11.8991 14.0343 11.464 14.6987 10.8911C16.0364 9.86938 17.2904 8.74247 18.4487 7.52111C18.4812 7.59816 18.5047 7.67869 18.5187 7.76111C18.643 8.6256 18.7065 9.49774 18.7087 10.3711C18.7477 12.0869 18.6809 13.8035 18.5087 15.5111C18.5135 15.581 18.5135 15.6512 18.5087 15.7211H18.0987C16.6987 15.8711 13.6787 16.0911 10.9087 16.2711C8.60873 16.4211 6.47873 16.5311 5.57873 16.5511C5.53191 16.5511 5.48557 16.5605 5.44244 16.5787C5.39931 16.5969 5.36027 16.6236 5.32764 16.6571C5.295 16.6907 5.26944 16.7305 5.25245 16.7741C5.23546 16.8177 5.22739 16.8643 5.22873 16.9111C5.22873 17.0066 5.26666 17.0982 5.33417 17.1657C5.40168 17.2332 5.49325 17.2711 5.58873 17.2711C7.22873 17.2711 12.8887 17.0711 16.3087 16.8811C17.4387 16.8211 18.3087 16.7611 18.7487 16.7111C18.919 16.7001 19.0854 16.6559 19.2387 16.5811C19.3412 16.5123 19.4211 16.415 19.4687 16.3011C19.5383 16.0928 19.5885 15.8786 19.6187 15.6611C19.8419 13.9001 19.9488 12.1262 19.9387 10.3511C19.9425 9.25973 19.8353 8.1708 19.6187 7.10111ZM13.0987 10.5411C12.8741 10.7126 12.6199 10.8414 12.3487 10.9211C12.1046 10.8882 11.8678 10.8138 11.6487 10.7011C11.0887 10.4711 10.3587 10.1111 9.57873 9.70111C8.10873 9.00111 6.48873 8.10111 5.53873 7.58111C7.1475 7.17992 8.80077 6.98503 10.4587 7.00111C12.9204 6.87498 15.387 6.87498 17.8487 7.00111C17.2287 7.57111 16.2587 8.34111 15.2787 9.06111C14.4987 9.65111 13.7087 10.1811 13.0987 10.5411Z" fill="#15151A"/>
<path d="M2.58058 3.4699C2.50157 3.35443 2.41112 3.24722 2.31058 3.1499C2.21634 3.05589 2.11243 2.97209 2.00058 2.8999C1.73058 2.7199 1.45058 2.6199 1.17058 2.4599C1.14312 2.42448 1.10853 2.39522 1.06904 2.37401C1.02956 2.35281 0.986055 2.34014 0.941357 2.33682C0.89666 2.3335 0.851764 2.3396 0.809577 2.35474C0.76739 2.36988 0.728854 2.39371 0.696465 2.42469C0.664076 2.45567 0.638556 2.49311 0.621559 2.53459C0.604562 2.57606 0.596467 2.62064 0.597797 2.66544C0.599128 2.71024 0.609856 2.75426 0.629284 2.79465C0.648713 2.83504 0.67641 2.8709 0.710582 2.8999C0.874843 3.25133 1.07241 3.58619 1.30058 3.8999C1.44063 4.05453 1.59838 4.19214 1.77058 4.3099C2.02058 4.4999 2.29058 4.6299 2.54058 4.8299C2.60769 4.89467 2.69732 4.93087 2.79058 4.93087C2.88385 4.93087 2.97347 4.89467 3.04058 4.8299C3.07414 4.79646 3.10077 4.75672 3.11894 4.71296C3.13711 4.6692 3.14647 4.62229 3.14647 4.5749C3.14647 4.52752 3.13711 4.48061 3.11894 4.43685C3.10077 4.39309 3.07414 4.35335 3.04058 4.3199C2.91413 4.02283 2.76012 3.73825 2.58058 3.4699Z" fill="#15151A"/>
<path d="M1.08066 12.0022C1.22329 12.0221 1.36802 12.0221 1.51066 12.0022C1.74066 12.0022 1.92066 11.8922 2.15066 11.8822C2.19531 11.8942 2.24191 11.8973 2.28776 11.8912C2.33361 11.8852 2.37781 11.8701 2.41779 11.8468C2.45778 11.8236 2.49276 11.7926 2.52071 11.7558C2.54866 11.7189 2.56904 11.6769 2.58065 11.6322C2.59424 11.5869 2.5985 11.5393 2.59319 11.4923C2.58787 11.4453 2.57308 11.3998 2.54972 11.3587C2.52635 11.3176 2.49489 11.2816 2.45724 11.253C2.41959 11.2244 2.37653 11.2037 2.33065 11.1922C2.10958 11.0472 1.86641 10.9391 1.61066 10.8722C1.50963 10.8417 1.40576 10.8216 1.30066 10.8122C1.2009 10.8022 1.10041 10.8022 1.00066 10.8122C0.750655 10.8722 0.570655 10.9822 0.330655 11.0622C0.247428 11.0594 0.166402 11.0892 0.104785 11.1452C0.0431681 11.2012 0.00581373 11.279 0.000654996 11.3622C-0.00204904 11.4037 0.00363756 11.4453 0.0173757 11.4846C0.0311139 11.5239 0.0526223 11.56 0.0806186 11.5908C0.108615 11.6216 0.142526 11.6465 0.180329 11.6639C0.218133 11.6813 0.259054 11.6909 0.300655 11.6922C0.547278 11.8264 0.809161 11.9305 1.08066 12.0022Z" fill="#15151A"/>
<path d="M2.17238 19.6431C1.91238 19.7931 1.66238 19.8931 1.41238 20.0431C1.30472 20.1015 1.20407 20.1719 1.11238 20.2531C1.01601 20.3295 0.928765 20.4167 0.852378 20.5131C0.675826 20.7552 0.521848 21.0129 0.392378 21.2831C0.363352 21.3119 0.340316 21.3462 0.324595 21.384C0.308875 21.4217 0.300781 21.4622 0.300781 21.5031C0.300781 21.544 0.308875 21.5845 0.324595 21.6223C0.340316 21.66 0.363352 21.6943 0.392378 21.7231C0.421193 21.7521 0.455467 21.7752 0.493225 21.7909C0.530983 21.8066 0.571478 21.8147 0.612378 21.8147C0.653278 21.8147 0.693773 21.8066 0.731531 21.7909C0.769289 21.7752 0.803563 21.7521 0.832378 21.7231C1.11238 21.5831 1.36238 21.5131 1.62238 21.3531C1.72531 21.2922 1.82239 21.2219 1.91238 21.1431C2.00073 21.0614 2.08421 20.9746 2.16238 20.8831C2.35238 20.6431 2.49238 20.4031 2.66238 20.1531C2.69719 20.1204 2.72493 20.0809 2.74389 20.037C2.76286 19.9932 2.77264 19.9459 2.77264 19.8981C2.77264 19.8503 2.76286 19.8031 2.74389 19.7592C2.72493 19.7153 2.69719 19.6758 2.66238 19.6431C2.59579 19.5813 2.50826 19.5469 2.41738 19.5469C2.32649 19.5469 2.23897 19.5813 2.17238 19.6431Z" fill="#15151A"/>
<path d="M21.5591 4.49075C21.8155 4.34259 22.0626 4.17896 22.2991 4.00075C22.3906 3.92258 22.4774 3.8391 22.5591 3.75075C22.6376 3.6677 22.7079 3.57728 22.7691 3.48075C22.9291 3.23075 23.0091 2.98075 23.1691 2.74075C23.2261 2.67966 23.2577 2.59925 23.2577 2.51575C23.2577 2.43224 23.2261 2.35183 23.1691 2.29075C23.1097 2.23448 23.031 2.20313 22.9491 2.20312C22.8673 2.20313 22.7885 2.23448 22.7291 2.29075C22.4375 2.40737 22.1593 2.55488 21.8991 2.73075C21.7973 2.80423 21.7064 2.89177 21.6291 2.99075C21.5503 3.08073 21.48 3.17781 21.4191 3.28075C21.2591 3.53075 21.1591 3.78075 21.0191 4.04075C20.9859 4.07333 20.9594 4.11223 20.9414 4.15516C20.9234 4.19809 20.9141 4.24418 20.9141 4.29075C20.9141 4.33731 20.9234 4.38341 20.9414 4.42633C20.9594 4.46926 20.9859 4.50816 21.0191 4.54075C21.0563 4.57616 21.1007 4.6032 21.1492 4.62004C21.1977 4.63689 21.2493 4.64316 21.3005 4.63842C21.3516 4.63368 21.4012 4.61805 21.4458 4.59258C21.4904 4.56711 21.529 4.53239 21.5591 4.49075Z" fill="#15151A"/>
<path d="M23.6205 10.4999C23.3305 10.4999 23.0905 10.3599 22.8005 10.3199C22.6774 10.31 22.5537 10.31 22.4305 10.3199C22.3041 10.3101 22.177 10.3101 22.0505 10.3199C21.7317 10.3712 21.4197 10.4584 21.1205 10.5799C21.0265 10.5947 20.9421 10.6461 20.8859 10.723C20.8297 10.7998 20.8062 10.8958 20.8205 10.9899C20.8266 11.0371 20.8421 11.0825 20.8663 11.1235C20.8904 11.1644 20.9227 11.2 20.961 11.2281C20.9994 11.2561 21.0431 11.2761 21.0894 11.2867C21.1358 11.2974 21.1838 11.2985 21.2305 11.2899C21.5205 11.2899 21.7905 11.4199 22.0805 11.4599C22.2834 11.4799 22.4877 11.4799 22.6905 11.4599C23.063 11.4002 23.4219 11.275 23.7505 11.0899C23.7914 11.0829 23.8303 11.0675 23.8649 11.0448C23.8995 11.022 23.929 10.9922 23.9516 10.9575C23.9741 10.9227 23.9892 10.8837 23.9959 10.8428C24.0026 10.8019 24.0008 10.7601 23.9905 10.7199C23.9673 10.6438 23.9165 10.5791 23.8481 10.5384C23.7796 10.4977 23.6985 10.484 23.6205 10.4999Z" fill="#15151A"/>
<path d="M22.4196 19.5802C22.2936 19.4523 22.16 19.3321 22.0196 19.2202L21.5696 18.9102C21.1896 18.6802 20.8096 18.5002 20.4196 18.3102C20.3813 18.2821 20.3377 18.262 20.2914 18.2512C20.2451 18.2405 20.197 18.2393 20.1503 18.2477C20.1035 18.2561 20.0589 18.274 20.0192 18.3002C19.9796 18.3264 19.9457 18.3605 19.9196 18.4002C19.8679 18.4793 19.8485 18.5751 19.8652 18.6681C19.882 18.7611 19.9336 18.8441 20.0096 18.9002C20.3196 19.2002 20.5796 19.5302 20.8896 19.8302C21.0923 20.0294 21.3096 20.2133 21.5396 20.3802C21.9638 20.6364 22.4048 20.8635 22.8596 21.0602C22.9265 21.1091 23.0097 21.1301 23.0917 21.119C23.1738 21.1078 23.2483 21.0652 23.2996 21.0002C23.3246 20.967 23.3426 20.9291 23.3526 20.8887C23.3626 20.8484 23.3644 20.8064 23.3579 20.7654C23.3513 20.7243 23.3366 20.685 23.3146 20.6498C23.2925 20.6145 23.2636 20.5841 23.2296 20.5602C22.9996 20.2302 22.7096 19.8902 22.4196 19.5802Z" fill="#15151A"/>
</svg>
