<svg width="24" height="24" viewBox="0 0 24 24" fill="none" xmlns="http://www.w3.org/2000/svg">
<g clip-path="url(#clip0_14471_11110)">
<path fill-rule="evenodd" clip-rule="evenodd" d="M4.52109 11.8566C4.94454 11.3415 5.2148 10.7178 5.30109 10.0566C5.36892 9.39845 5.24384 8.73483 4.94109 8.14656C4.78519 7.84391 4.57891 7.56999 4.33109 7.33656C4.07561 7.11028 3.80128 6.9062 3.51109 6.72656C3.09109 6.80656 2.91109 6.97656 3.10109 7.28656C3.27883 7.42749 3.44289 7.58485 3.59109 7.75656C3.78275 7.97993 3.92275 8.24285 4.00109 8.52656C4.11334 8.88171 4.15413 9.25557 4.12109 9.62656C4.08209 10.1775 3.89176 10.7069 3.57109 11.1566C3.00279 11.9946 2.15023 12.5985 1.17109 12.8566C0.961094 13.1666 0.891094 13.4266 1.24109 13.5266H1.33109C2.56963 13.4009 3.7121 12.8028 4.52109 11.8566Z" fill="#15151A"/>
<path fill-rule="evenodd" clip-rule="evenodd" d="M17.5106 8.75041C17.7687 9.35171 18.1705 9.8805 18.6806 10.2904C19.2776 10.7323 19.9579 11.0486 20.6806 11.2204C21.3355 11.3766 22.0073 11.4505 22.6806 11.4404C22.9206 11.1804 22.8206 10.9304 22.5106 10.6904C21.9788 10.6289 21.4555 10.5081 20.9506 10.3304C20.3904 10.1286 19.8768 9.81565 19.4406 9.41041C19.0929 9.08812 18.8169 8.6963 18.6306 8.26041C18.4266 7.80915 18.2885 7.33093 18.2206 6.84041C18.1136 6.04017 18.2206 5.22588 18.5306 4.48041C18.6506 3.98041 18.4506 3.84041 17.9806 4.00041C17.4009 4.86187 17.1038 5.88243 17.1306 6.92041C17.1381 7.54919 17.2672 8.17059 17.5106 8.75041Z" fill="#15151A"/>
<path fill-rule="evenodd" clip-rule="evenodd" d="M24.0017 12.4838C23.9419 11.2711 23.7405 10.0697 23.4017 8.90378C22.7014 6.50351 21.1929 4.41913 19.1317 3.00378C17.1162 1.59769 14.7617 0.755344 12.3117 0.563776C9.54357 0.449878 6.8385 1.41009 4.7617 3.24378C2.69178 4.98179 1.1617 7.27518 0.351697 9.85378C-0.163915 11.632 -0.111475 13.5268 0.501697 15.2738C0.773775 16.133 1.26574 16.9062 1.92879 17.5166C2.59185 18.127 3.40297 18.5535 4.2817 18.7538C4.30243 19.5457 4.52255 20.3195 4.9217 21.0038C5.65786 22.1011 6.78413 22.8769 8.0717 23.1738C9.87422 23.5197 11.7195 23.5838 13.5417 23.3638C14.4701 23.3083 15.3843 23.1093 16.2517 22.7738C16.8561 22.523 17.4011 22.1483 17.8517 21.6738C18.4766 20.9606 18.9101 20.1003 19.1117 19.1738C19.1795 18.8866 19.2329 18.5963 19.2717 18.3038C20.2062 18.3008 21.1186 18.0188 21.8917 17.4938C22.7761 16.9031 23.4268 16.0226 23.7317 15.0038C23.9526 14.183 24.0437 13.3327 24.0017 12.4838ZM18.2517 18.9238C18.0568 19.6758 17.671 20.3647 17.1317 20.9238C16.7603 21.2677 16.3256 21.536 15.8517 21.7138C15.0842 21.9735 14.2817 22.1151 13.4717 22.1338C11.7678 22.3403 10.0429 22.2965 8.3517 22.0038C7.30535 21.812 6.36587 21.2426 5.7117 20.4038C5.34883 19.8428 5.13224 19.1999 5.0817 18.5338C4.98864 17.448 5.00875 16.3554 5.1417 15.2738C6.45854 14.273 7.988 13.5887 9.6117 13.2738C11.0555 12.9644 12.5443 12.9271 14.0017 13.1638C15.7026 13.4111 17.2926 14.1556 18.5717 15.3038C18.5717 15.3038 18.5717 15.3038 18.6317 15.3038C18.7058 16.5238 18.5739 17.7475 18.2417 18.9238H18.2517ZM22.9217 14.7338C22.6965 15.5888 22.1757 16.3363 21.4517 16.8438C20.8337 17.2771 20.1056 17.5267 19.3517 17.5638C19.4011 16.7604 19.3844 15.9544 19.3017 15.1538C18.0094 13.5494 16.193 12.4517 14.1717 12.0538C13.3772 11.8806 12.5644 11.8067 11.7517 11.8338C10.9406 11.8549 10.135 11.9724 9.3517 12.1838C7.52614 12.6863 5.86422 13.6586 4.5317 15.0038C4.37168 16.0365 4.28147 17.0789 4.2617 18.1238C3.54479 17.9007 2.89492 17.5021 2.37104 16.9643C1.84716 16.4264 1.46585 15.7663 1.2617 15.0438C0.788775 13.4515 0.788775 11.7561 1.2617 10.1638C2.10563 7.81411 3.57515 5.7395 5.5117 4.16378C7.37142 2.54566 9.77842 1.69802 12.2417 1.79378C16.1817 2.06378 21.1117 4.68378 22.4617 9.20378C22.8006 10.2937 23.0218 11.4168 23.1217 12.5538C23.1601 13.2868 23.0893 14.0215 22.9117 14.7338H22.9217Z" fill="#15151A"/>
<path fill-rule="evenodd" clip-rule="evenodd" d="M9.69108 3.37684H9.57108C9.24266 3.45298 8.92634 3.57412 8.63108 3.73684C8.18873 4.00977 7.83994 4.41088 7.63108 4.88684C7.43745 5.2572 7.35079 5.67416 7.38082 6.09099C7.41084 6.50783 7.55637 6.90807 7.80108 7.24684C8.05422 7.5799 8.39135 7.83969 8.77792 7.99959C9.1645 8.15949 9.58663 8.21376 10.0011 8.15684C10.4951 8.09059 10.9636 7.89767 11.3611 7.59684C11.779 7.28779 12.0873 6.85336 12.2411 6.35684C12.3498 5.97396 12.3647 5.57054 12.2847 5.18066C12.2046 4.79078 12.0319 4.4259 11.7811 4.11684C11.5364 3.81081 11.211 3.57932 10.8417 3.44855C10.4724 3.31777 10.0738 3.29294 9.69108 3.37684ZM11.2311 6.00684C11.1105 6.26167 10.9197 6.47677 10.6811 6.62684C10.4434 6.81935 10.1616 6.94992 9.86108 7.00684C9.64868 7.03823 9.43178 7.01524 9.23067 6.94004C9.02956 6.86485 8.85079 6.73989 8.71108 6.57684C8.56635 6.40503 8.469 6.1984 8.42866 5.97741C8.38832 5.75641 8.40639 5.52871 8.48108 5.31684C8.58139 4.98287 8.78432 4.68897 9.06108 4.47684C9.26316 4.32913 9.48544 4.21126 9.72108 4.12684H9.82108C10.0636 4.09121 10.3113 4.12599 10.5347 4.22703C10.7581 4.32808 10.9477 4.49115 11.0811 4.69684C11.2042 4.88935 11.2817 5.10744 11.3077 5.33448C11.3337 5.56151 11.3075 5.79149 11.2311 6.00684Z" fill="#15151A"/>
<path fill-rule="evenodd" clip-rule="evenodd" d="M8.51147 17.7126C8.51147 17.4226 8.62147 17.1626 8.66147 16.8626C8.6713 16.7428 8.6713 16.6224 8.66147 16.5026C8.6714 16.3795 8.6714 16.2557 8.66147 16.1326C8.66147 15.8226 8.52147 15.5526 8.45147 15.2526C8.45418 15.2119 8.44882 15.171 8.4357 15.1323C8.42258 15.0937 8.40196 15.058 8.37501 15.0274C8.34807 14.9967 8.31533 14.9717 8.27869 14.9537C8.24204 14.9357 8.2022 14.9251 8.16147 14.9226C8.07816 14.917 7.99598 14.9442 7.93246 14.9984C7.86894 15.0526 7.82911 15.1294 7.82147 15.2126C7.69735 15.4982 7.59375 15.7923 7.51147 16.0926C7.49618 16.2255 7.49618 16.3597 7.51147 16.4926C7.50155 16.6224 7.50155 16.7528 7.51147 16.8826C7.57561 17.1963 7.66592 17.504 7.78147 17.8026C7.7963 17.8954 7.84589 17.9791 7.92018 18.0367C7.99447 18.0942 8.08789 18.1214 8.18147 18.1126C8.22973 18.1089 8.27675 18.0955 8.31972 18.0731C8.36268 18.0508 8.4007 18.0201 8.43151 17.9827C8.46232 17.9454 8.48528 17.9022 8.49901 17.8558C8.51275 17.8094 8.51699 17.7607 8.51147 17.7126Z" fill="#15151A"/>
<path fill-rule="evenodd" clip-rule="evenodd" d="M14.9302 15.1563C14.9386 15.0729 14.914 14.9895 14.8617 14.9241C14.8093 14.8586 14.7334 14.8163 14.6502 14.8063C14.6094 14.8021 14.5683 14.8061 14.5291 14.818C14.4899 14.8298 14.4534 14.8494 14.4218 14.8754C14.3902 14.9014 14.364 14.9335 14.3449 14.9697C14.3257 15.0059 14.3139 15.0455 14.3102 15.0863C14.1739 15.353 14.0601 15.6306 13.9702 15.9163C13.9396 16.0343 13.9196 16.1547 13.9102 16.2763V16.6463C13.954 16.942 14.0243 17.2331 14.1202 17.5163C14.1187 17.5635 14.1271 17.6105 14.1448 17.6543C14.1625 17.6981 14.1891 17.7377 14.223 17.7706C14.2569 17.8036 14.2972 17.8291 14.3415 17.8456C14.3858 17.862 14.433 17.8691 14.4802 17.8663C14.5748 17.8612 14.6638 17.8199 14.729 17.7511C14.7941 17.6822 14.8303 17.591 14.8302 17.4963C14.8902 17.2163 14.9802 16.9763 15.0402 16.6963C15.0698 16.5815 15.0899 16.4644 15.1002 16.3463C15.1152 16.2334 15.1152 16.1191 15.1002 16.0063C15.0578 15.7203 15.0011 15.4366 14.9302 15.1563Z" fill="#15151A"/>
<path fill-rule="evenodd" clip-rule="evenodd" d="M13.8314 19.3738C13.3181 19.6978 12.7357 19.8965 12.1314 19.9538C11.8783 19.9687 11.6245 19.9687 11.3714 19.9538H10.6114C10.0012 19.9199 9.40652 19.749 8.87141 19.4538C8.83924 19.4282 8.80233 19.4092 8.76281 19.3978C8.72329 19.3865 8.68191 19.383 8.64106 19.3877C8.6002 19.3923 8.56065 19.4049 8.52468 19.4249C8.48871 19.4448 8.45702 19.4716 8.43141 19.5038C8.4058 19.536 8.38678 19.5729 8.37544 19.6124C8.36409 19.6519 8.36064 19.6933 8.36528 19.7341C8.36993 19.775 8.38257 19.8145 8.4025 19.8505C8.42242 19.8865 8.44924 19.9182 8.48141 19.9438C9.00896 20.4924 9.67629 20.8866 10.4114 21.0838C10.7388 21.1624 11.0748 21.1994 11.4114 21.1938C11.7494 21.1904 12.0855 21.1434 12.4114 21.0538C13.1461 20.8488 13.8148 20.4559 14.3514 19.9138C14.3847 19.8812 14.4111 19.8423 14.4291 19.7994C14.4472 19.7564 14.4565 19.7104 14.4565 19.6638C14.4565 19.6172 14.4472 19.5711 14.4291 19.5282C14.4111 19.4853 14.3847 19.4464 14.3514 19.4138C14.3206 19.376 14.2824 19.3448 14.2392 19.3222C14.196 19.2996 14.1486 19.2861 14.1 19.2823C14.0514 19.2786 14.0025 19.2847 13.9563 19.3005C13.9101 19.3162 13.8676 19.3411 13.8314 19.3738Z" fill="#15151A"/>
</g>
<defs>
<clipPath id="clip0_14471_11110">
<rect width="24" height="24" fill="white"/>
</clipPath>
</defs>
</svg>
