<svg width="24" height="24" viewBox="0 0 24 24" fill="none" xmlns="http://www.w3.org/2000/svg">
<g clip-path="url(#clip0_14471_11027)">
<path d="M24.0008 2.48915C24.0033 2.00542 23.825 1.53821 23.5008 1.17915C23.201 1.00598 22.8692 0.895425 22.5254 0.854173C22.1816 0.812921 21.8331 0.84183 21.5008 0.939152C20.2806 1.2083 19.0756 1.54211 17.8908 1.93915C17.2808 2.11915 16.6808 2.32915 16.0908 2.55915C15.2108 2.88915 14.3508 3.26915 13.4808 3.64915C11.8799 4.34826 10.3177 5.13272 8.80081 5.99915C7.27888 6.85584 5.84526 7.86071 4.52081 8.99915L1.09081 12.0692L0.300814 12.8592C0.203355 12.9614 0.119343 13.0756 0.0508135 13.1992C0.0195205 13.2864 0.0195205 13.3819 0.0508135 13.4692C0.0713036 13.5789 0.118516 13.682 0.188279 13.7692C0.258042 13.8564 0.348209 13.9251 0.450814 13.9692C0.837173 14.101 1.24256 14.1686 1.65081 14.1692C2.09081 14.1692 2.87081 14.1692 3.54081 14.2692C3.87966 14.259 4.21778 14.3063 4.54081 14.4092L4.73081 16.6392C4.79081 17.2792 4.82081 17.7792 4.82081 18.2492C4.82081 18.9992 4.72081 20.2992 4.72081 21.3192C4.72081 21.4093 4.75664 21.4958 4.8204 21.5596C4.88416 21.6233 4.97064 21.6592 5.06081 21.6592C5.15099 21.6592 5.23747 21.6233 5.30123 21.5596C5.36499 21.4958 5.40081 21.4093 5.40081 21.3192C5.40081 20.3192 5.53081 18.9992 5.54081 18.2492C5.54081 17.7592 5.54081 17.2492 5.47081 16.5792C5.40081 15.9092 5.40081 15.0692 5.32081 14.5792C5.24081 14.0892 5.23081 13.8192 3.98081 13.5792C3.24081 13.4892 2.22081 13.4392 1.67081 13.4092L1.12081 13.3292L1.70081 12.7592L5.15081 9.75915C6.42785 8.65036 7.81509 7.67527 9.29081 6.84915C10.7826 6.04452 12.3146 5.3169 13.8808 4.66915C14.7308 4.30915 15.5908 3.95915 16.4508 3.66915C18.2805 2.9916 20.1684 2.48281 22.0908 2.14915C22.9908 2.53915 22.8608 2.87915 22.8408 3.14915C22.8035 3.65394 22.713 4.15337 22.5708 4.63915L21.2808 8.99915C21.0208 9.86915 20.7408 10.6792 20.4508 11.4692C19.7408 13.3792 18.9608 15.1692 18.2408 17.2392C18.0721 17.7089 17.8717 18.1666 17.6408 18.6092C17.2708 19.3092 16.8508 19.9792 16.4608 20.6092C16.3508 20.8129 16.2237 21.007 16.0808 21.1892L15.9808 21.3092L15.9208 21.2192L14.9208 19.6492C14.4277 18.9727 13.9004 18.3218 13.3408 17.6992C12.7797 17.0711 12.182 16.4768 11.5508 15.9192C11.1208 15.5592 9.91081 14.5592 9.55081 15.2792C9.45081 15.4092 9.34081 15.6592 9.28081 15.7292L8.11081 17.4292L6.93081 19.5192C6.51081 20.2492 6.01081 20.9392 5.56081 21.6692C5.37081 21.9892 5.18081 22.3192 5.02081 22.6692C4.98643 22.7408 4.98185 22.8231 5.0081 22.8981C5.03435 22.9731 5.08927 23.0346 5.16081 23.0692C5.16081 23.0692 5.44081 23.2992 5.85081 22.9892C6.26081 22.6792 6.38081 22.5992 6.61081 22.4192C6.84081 22.2392 7.37081 21.8692 7.74081 21.6092C8.11081 21.3492 8.41081 21.1592 8.74081 20.9292L10.2608 19.8692C11.0608 19.2992 11.8308 18.7092 12.5808 18.0792L12.7508 18.2692C13.2908 18.8992 13.8008 19.5592 14.2408 20.1792L15.1408 21.7192C15.2324 21.8896 15.336 22.0534 15.4508 22.2092C15.508 22.2697 15.5783 22.3165 15.6562 22.346C15.7342 22.3754 15.8178 22.3868 15.9008 22.3792C16.1378 22.3402 16.3593 22.2363 16.5408 22.0792C16.8251 21.8036 17.0706 21.4907 17.2708 21.1492C17.6808 20.5192 18.1308 19.8292 18.5208 19.1492C18.7894 18.6713 19.0201 18.1731 19.2108 17.6592C19.9508 15.5992 20.7708 13.8292 21.4908 11.9392C21.8108 11.1192 22.1008 10.2892 22.3708 9.39915L23.6708 4.99915C23.9133 4.1853 24.0247 3.33803 24.0008 2.48915ZM9.12081 19.2692C8.77556 19.4922 8.44181 19.7325 8.12081 19.9892C7.78081 20.2592 7.46081 20.5392 7.12081 20.8392L6.37081 21.6092C6.76081 21.0192 7.17081 20.4492 7.53081 19.8492L8.77081 17.8492L9.92081 16.1992C9.97081 16.1392 10.1208 15.8892 10.1808 15.7892C10.2408 15.6892 10.3808 15.9192 10.4908 15.9992C10.6008 16.0792 10.9408 16.4092 11.0708 16.5192C11.4108 16.8292 11.7508 17.1792 12.0708 17.5192C11.1208 18.1492 10.0908 18.6592 9.12081 19.2692Z" fill="#15151A"/>
<path d="M13.6997 9.67258C13.1697 10.2526 12.6997 10.8626 12.1797 11.4926C11.6597 12.1226 11.0597 12.9326 10.5497 13.6926C10.4397 13.8526 10.3397 14.0226 10.2397 14.1826C9.97968 14.9726 10.3497 14.8526 11.0397 14.2626L11.1297 14.1226C11.6897 13.4126 12.3197 12.7426 12.9097 12.1226C13.8597 11.0326 14.9097 10.0326 15.9097 9.04258L18.1297 6.95258C19.2197 5.95258 20.3097 4.89258 21.3797 3.84258C22.9997 1.00258 18.5897 5.00258 16.2097 7.17258C15.3397 8.00258 14.4997 8.79258 13.6997 9.67258Z" fill="#15151A"/>
<path d="M13.3021 6.60983C11.9121 7.54983 10.5721 8.54983 9.23209 9.60983L6.07209 12.1798C5.87209 12.3598 5.64209 12.5498 5.41209 12.7398C4.93209 13.3398 5.00209 13.5598 6.09209 13.0798C6.25209 12.9698 6.41209 12.8598 6.54209 12.7498L9.84209 10.3898L18.0621 4.71983C18.8721 4.16983 19.6521 3.61983 20.4621 3.08983C20.6521 2.41983 19.2321 2.88983 18.0621 3.57983L17.5321 3.89983C16.1121 4.78983 14.6821 5.65983 13.3021 6.60983Z" fill="#15151A"/>
</g>
<defs>
<clipPath id="clip0_14471_11027">
<rect width="24" height="24" fill="white"/>
</clipPath>
</defs>
</svg>
