<svg width="24" height="24" viewBox="0 0 24 24" fill="none" xmlns="http://www.w3.org/2000/svg">
<g clip-path="url(#clip0_14471_11055)">
<path d="M9.19932 1.8681C9.89511 1.56586 10.6412 1.39629 11.3993 1.3681C11.7193 1.3681 12.0493 1.3681 12.3993 1.3181C12.7493 1.2681 13.0493 1.3181 13.3993 1.3181C14.1496 1.27777 14.8991 1.41123 15.5893 1.7081C15.6206 1.73096 15.6562 1.74731 15.694 1.75618C15.7317 1.76505 15.7709 1.76626 15.8091 1.75973C15.8473 1.7532 15.8839 1.73908 15.9165 1.71818C15.9492 1.69729 15.9774 1.67006 15.9993 1.6381C16.0429 1.57396 16.06 1.49544 16.0469 1.419C16.0339 1.34256 15.9917 1.27414 15.9293 1.2281C15.223 0.684073 14.384 0.338817 13.4993 0.228097C13.1148 0.178193 12.7267 0.161465 12.3393 0.178097C11.9701 0.196154 11.6026 0.23959 11.2393 0.308097C10.3813 0.469981 9.56697 0.810704 8.84932 1.3081C8.81111 1.33161 8.77792 1.36246 8.75168 1.39886C8.72544 1.43526 8.70667 1.4765 8.69645 1.52019C8.68622 1.56388 8.68474 1.60916 8.6921 1.65343C8.69946 1.69769 8.71551 1.74006 8.73932 1.7781C8.78981 1.84925 8.86571 1.89828 8.95134 1.91503C9.03696 1.93178 9.12574 1.91498 9.19932 1.8681Z" fill="#15151A"/>
<path d="M23.7821 10.3104C23.7772 10.2657 23.7634 10.2223 23.7415 10.1829C23.7197 10.1435 23.6902 10.1089 23.6549 10.081C23.6195 10.053 23.5789 10.0324 23.5356 10.0203C23.4922 10.0082 23.4468 10.0049 23.4021 10.0104C23.3146 10.0252 23.236 10.0727 23.1821 10.1432C23.1283 10.2138 23.1033 10.3021 23.1121 10.3904C23.1721 10.8904 23.2021 11.3904 23.2121 11.8804C23.2227 12.3779 23.2026 12.8755 23.1521 13.3704C23.0606 14.3025 22.8419 15.2177 22.5021 16.0904C22.1658 16.9676 21.7296 17.8031 21.2021 18.5804C20.0922 20.1462 18.5337 21.3387 16.7321 22.0004C14.9404 22.705 13.0109 22.989 11.0921 22.8304C10.0362 22.7379 8.99711 22.5059 8.00211 22.1404C6.99262 21.7934 6.05174 21.2722 5.22211 20.6004C3.79568 19.3884 2.71284 17.8228 2.08211 16.0604C1.42628 14.2781 1.18019 12.3709 1.36211 10.4804C1.36671 10.4423 1.36376 10.4037 1.35343 10.3668C1.3431 10.3298 1.3256 10.2953 1.30192 10.2651C1.27824 10.2349 1.24885 10.2097 1.21542 10.1909C1.182 10.1721 1.14519 10.16 1.10711 10.1554C1.06903 10.1508 1.03041 10.1538 0.993468 10.1641C0.956525 10.1744 0.921977 10.1919 0.891798 10.2156C0.861619 10.2393 0.836399 10.2687 0.817579 10.3021C0.798759 10.3355 0.786707 10.3723 0.78211 10.4104C0.51335 12.3973 0.704951 14.4194 1.34211 16.3204C1.95857 18.2573 3.0723 19.9986 4.57211 21.3704C5.4578 22.1456 6.47338 22.7583 7.57211 23.1804C8.67099 23.6144 9.82579 23.8904 11.0021 24.0004C13.1021 24.1519 15.2083 23.8095 17.1521 23.0004C19.1307 22.2239 20.8234 20.8592 22.0021 19.0904C22.5431 18.2399 22.9859 17.3307 23.3221 16.3804C23.662 15.4299 23.8705 14.4374 23.9421 13.4304V11.8604C23.9421 11.2904 23.8521 10.8204 23.7821 10.3104Z" fill="#15151A"/>
<path d="M19.1207 13.9997C18.7881 13.9688 18.4533 13.9688 18.1207 13.9997C16.7407 13.9997 13.7707 14.1797 11.1207 14.3297C8.47071 14.4797 5.77071 14.7797 5.77071 14.7797C5.68226 14.8449 5.60945 14.929 5.55755 15.0259C5.50566 15.1227 5.476 15.23 5.47071 15.3397C5.45448 15.8774 5.53928 16.4133 5.72071 16.9197C6.0037 17.8575 6.48451 18.7236 7.13071 19.4597C7.8017 20.1643 8.61053 20.7232 9.50685 21.1017C10.4032 21.4802 11.3678 21.6701 12.3407 21.6597C14.3031 21.5816 16.1682 20.7843 17.5807 19.4197C18.4995 18.5164 19.1532 17.3785 19.4707 16.1297C19.6373 15.5843 19.6545 15.0041 19.5207 14.4497C19.4931 14.349 19.4426 14.2561 19.3732 14.178C19.3039 14.1 19.2175 14.039 19.1207 13.9997ZM17.8907 17.1097C17.6155 17.6538 17.2504 18.1474 16.8107 18.5697C15.6126 19.7756 14.0166 20.5042 12.3207 20.6197C11.4728 20.6553 10.6266 20.5156 9.8351 20.2094C9.04361 19.9031 8.32381 19.4368 7.72071 18.8397C7.22939 18.3255 6.84227 17.7211 6.58071 17.0597C6.37972 16.6074 6.24177 16.1296 6.17071 15.6397V15.2697C7.41081 15.1591 8.65579 15.1123 9.90071 15.1297C12.7507 15.0697 16.3907 15.0597 18.0607 15.0597H18.5607C18.4852 15.7828 18.2568 16.4816 17.8907 17.1097Z" fill="#15151A"/>
<path d="M3.71038 8.58375C4.265 9.48535 4.74975 10.4281 5.16038 11.4037C5.23278 11.5571 5.34748 11.6866 5.49098 11.7769C5.63448 11.8673 5.8008 11.9147 5.97038 11.9137C6.12036 11.8706 6.25816 11.793 6.37276 11.6871C6.48737 11.5811 6.57559 11.4499 6.63038 11.3038C7.01849 10.235 7.47613 9.19275 8.00038 8.18375C8.54038 7.47375 10.2504 6.92375 10.8604 6.49375C10.9941 6.42124 11.1063 6.31454 11.1853 6.18453C11.2644 6.05453 11.3075 5.90588 11.3104 5.75375C11.2776 5.61891 11.2171 5.49238 11.1327 5.38219C11.0484 5.27201 10.942 5.18059 10.8204 5.11375C9.71671 4.69296 8.63825 4.20882 7.59038 3.66375C6.75038 3.00375 6.14038 1.11375 5.63038 0.46375C5.56111 0.357576 5.46817 0.268906 5.35886 0.204707C5.24955 0.140508 5.12684 0.102528 5.00038 0.09375C4.75038 0.09375 4.48038 0.39375 4.31038 0.91375C4.09562 1.92986 3.81843 2.93176 3.48038 3.91375C3.08038 4.72375 1.22038 5.52375 0.530377 6.00375C0.389423 6.08152 0.272202 6.19606 0.191196 6.33518C0.110191 6.47429 0.0684357 6.63278 0.0703772 6.79375C0.11749 6.92983 0.19657 7.05262 0.300975 7.1518C0.405379 7.25099 0.53206 7.32367 0.670377 7.36375C1.36038 7.67375 3.10038 8.00375 3.71038 8.58375ZM3.20038 5.31375C3.6167 5.03212 3.95958 4.65495 4.20038 4.21375C4.30787 3.95431 4.3948 3.68682 4.46038 3.41375C4.67038 2.57375 4.78038 1.58375 4.98038 1.00375L5.00038 0.83375C5.00038 0.88375 5.12038 0.92375 5.16038 0.99375C5.47038 1.49375 5.80038 2.39375 6.22038 3.15375C6.43398 3.58665 6.72551 3.97649 7.08038 4.30375C7.42013 4.58191 7.79296 4.81703 8.19038 5.00375C8.80038 5.28375 9.49038 5.54375 9.97038 5.78375L10.0904 5.85375H9.98038C9.49038 6.09375 8.81038 6.36375 8.23038 6.68375C7.81315 6.88613 7.43949 7.16808 7.13038 7.51375C6.60879 8.39369 6.17983 9.32534 5.85038 10.2937C5.49407 9.40922 5.0342 8.57004 4.48038 7.79375C4.12532 7.49259 3.71405 7.26486 3.27038 7.12375C2.65038 6.90375 1.93038 6.73375 1.40038 6.58375C1.84038 6.23375 2.60038 5.78375 3.20038 5.31375Z" fill="#15151A"/>
<path d="M12.8986 5.5C12.8957 5.65078 12.9354 5.79932 13.0133 5.92848C13.0911 6.05764 13.2039 6.16216 13.3386 6.23C13.9286 6.65 15.5886 7.18 16.1086 7.87C16.6134 8.83886 17.0511 9.84121 17.4186 10.87C17.4759 11.0124 17.5653 11.1397 17.6797 11.242C17.7942 11.3443 17.9307 11.4189 18.0786 11.46C18.2473 11.4631 18.4134 11.4176 18.557 11.329C18.7006 11.2403 18.8157 11.1122 18.8886 10.96C19.2825 10.0145 19.7507 9.10166 20.2886 8.23C20.8786 7.63 22.5686 7.34 23.2286 7.06C23.6186 6.89 23.7886 6.66 23.8186 6.5C23.8237 6.33963 23.7844 6.18096 23.705 6.04154C23.6256 5.90212 23.5092 5.78738 23.3686 5.71C22.7086 5.24 20.8986 4.46 20.5186 3.71C20.1922 2.77015 19.9217 1.81181 19.7086 0.84C19.5386 0.33 19.2786 0.05 18.9986 0C18.8723 0.00446913 18.7489 0.0395706 18.6392 0.102283C18.5294 0.164995 18.4366 0.253438 18.3686 0.36C17.8686 0.99 17.2786 2.82 16.4586 3.46C15.4454 3.98712 14.4038 4.45783 13.3386 4.87C13.2233 4.93602 13.124 5.02675 13.048 5.13568C12.9719 5.24461 12.9209 5.36902 12.8986 5.5ZM14.2086 5.5C14.6786 5.27 15.3386 5.02 15.9286 4.74C16.3087 4.56862 16.6678 4.35386 16.9986 4.1C17.3462 3.78534 17.6371 3.41325 17.8586 3C18.2486 2.27 18.5786 1.4 18.8586 0.91C18.8586 0.84 18.9686 0.8 19.0086 0.75C19.0014 0.803094 19.0014 0.856906 19.0086 0.91C19.1886 1.47 19.3086 2.44 19.5086 3.26C19.571 3.523 19.6546 3.78051 19.7586 4.03C19.9815 4.45695 20.3039 4.82396 20.6986 5.1C21.2686 5.56 21.9886 5.99 22.4686 6.31C21.9686 6.46 21.2486 6.61 20.6286 6.83C20.1956 6.97002 19.7945 7.19433 19.4486 7.49C18.9171 8.23619 18.4742 9.04159 18.1286 9.89C17.8449 8.95706 17.4662 8.05567 16.9986 7.2C16.6977 6.86332 16.3343 6.58824 15.9286 6.39C15.3586 6.08 14.6986 5.82 14.2286 5.59H14.1486L14.2086 5.5Z" fill="#15151A"/>
</g>
<defs>
<clipPath id="clip0_14471_11055">
<rect width="24" height="24" fill="white"/>
</clipPath>
</defs>
</svg>
