<svg width="24" height="24" viewBox="0 0 24 24" fill="none" xmlns="http://www.w3.org/2000/svg">
<g clip-path="url(#clip0_14471_11062)">
<path d="M23.8702 9.9975C23.7584 8.97395 23.5268 7.96706 23.1802 6.9975C22.5076 5.20485 21.3345 3.64299 19.8002 2.4975C18.2889 1.36493 16.5056 0.650927 14.6302 0.4275C14.5393 0.418679 14.4484 0.444767 14.376 0.500474C14.3036 0.556181 14.255 0.63734 14.2402 0.7275C14.2316 0.817293 14.258 0.906939 14.3139 0.977739C14.3698 1.04854 14.4509 1.09502 14.5402 1.1075C16.2935 1.35387 17.9499 2.0613 19.3402 3.1575C20.7182 4.23638 21.7591 5.68669 22.3402 7.3375C22.6638 8.23992 22.8852 9.17576 23.0002 10.1275C23.0855 11.0823 23.0855 12.0427 23.0002 12.9975C22.9088 13.9393 22.6902 14.8644 22.3502 15.7475C22.0194 16.6378 21.5865 17.4868 21.0602 18.2775C19.9447 19.8728 18.3725 21.0929 16.5502 21.7775C14.7294 22.5046 12.7637 22.7957 10.8102 22.6275C9.72965 22.5347 8.66664 22.2959 7.65023 21.9175C6.64268 21.5455 5.70593 21.0044 4.88023 20.3175C2.80816 18.4735 1.46683 15.947 1.10023 13.1975C0.640555 10.4423 1.27963 7.61671 2.88023 5.3275C3.72657 4.15217 4.78466 3.14495 6.00023 2.3575C7.23233 1.59309 8.6261 1.12736 10.0702 0.9975C10.7802 0.9275 11.4902 0.8675 12.1902 0.8675C12.6585 0.862586 13.1265 0.89267 13.5902 0.9575C13.6309 0.968065 13.6733 0.969978 13.7147 0.963116C13.7562 0.956254 13.7957 0.94077 13.8307 0.917665C13.8658 0.89456 13.8956 0.864349 13.9183 0.828988C13.941 0.793627 13.9559 0.753903 13.9623 0.712387C13.9686 0.670871 13.9661 0.628488 13.9551 0.587981C13.944 0.547473 13.9245 0.509744 13.8979 0.477234C13.8713 0.444724 13.8382 0.418158 13.8007 0.399255C13.7632 0.380353 13.7222 0.369534 13.6802 0.3675C13.1917 0.273161 12.6971 0.213015 12.2002 0.1875C11.4702 0.1875 10.7402 0.1875 10.0102 0.2775C8.45623 0.416456 6.95461 0.909017 5.62023 1.7175C4.29879 2.53105 3.13927 3.58208 2.20023 4.8175C0.40675 7.2667 -0.344624 10.3261 0.110231 13.3275C0.465227 16.3482 1.90429 19.1375 4.16023 21.1775C5.08091 21.9583 6.1297 22.5741 7.26023 22.9975C8.38093 23.4092 9.551 23.6715 10.7402 23.7775C12.8731 23.9475 15.0163 23.6188 17.0002 22.8175C19.0216 22.0238 20.7499 20.6273 21.9502 18.8175C22.5134 17.9543 22.9732 17.028 23.3202 16.0575C23.6691 15.0908 23.8876 14.0819 23.9702 13.0575C24.0323 12.0366 23.9989 11.0122 23.8702 9.9975Z" fill="#15151A"/>
<path d="M6.13987 9.40802C6.37918 9.54734 6.64402 9.63724 6.91869 9.67237C7.19337 9.70751 7.4723 9.68718 7.73898 9.61259C8.00566 9.53799 8.25466 9.41065 8.47124 9.2381C8.68782 9.06554 8.86758 8.85129 8.99987 8.60802C9.18846 8.20185 9.21702 7.73953 9.07986 7.31323C8.94271 6.88694 8.64992 6.52801 8.25987 6.30802C7.99436 6.1892 7.7033 6.13885 7.41331 6.16156C7.12332 6.18427 6.84365 6.27932 6.59987 6.43802C5.63987 6.99802 4.99987 8.61802 6.13987 9.40802Z" fill="#15151A"/>
<path d="M15.7216 9.41726C15.9627 9.5672 16.2377 9.65398 16.5212 9.66959C16.8047 9.68519 17.0876 9.62912 17.3437 9.50655C17.5998 9.38398 17.8209 9.19885 17.9866 8.96827C18.1522 8.73769 18.2571 8.46909 18.2916 8.18726C18.3625 7.83403 18.3194 7.4674 18.1684 7.14028C18.0174 6.81317 17.7664 6.54247 17.4516 6.36726C15.7416 5.63726 14.0616 7.49726 15.1016 8.89726C15.2643 9.11717 15.4767 9.29538 15.7216 9.41726Z" fill="#15151A"/>
<path d="M9.33038 18.5165C8.71607 18.2621 8.14833 17.9072 7.65038 17.4665C7.01652 16.9004 6.52635 16.1917 6.22034 15.3988C5.91432 14.606 5.80123 13.7517 5.89038 12.9065C5.89888 12.8284 5.8764 12.7501 5.82779 12.6884C5.77917 12.6267 5.70829 12.5866 5.63038 12.5765C5.59093 12.5709 5.55076 12.5732 5.51221 12.5833C5.47366 12.5934 5.43751 12.611 5.40585 12.6352C5.3742 12.6594 5.34769 12.6897 5.32786 12.7243C5.30804 12.7588 5.2953 12.797 5.29038 12.8365C5.13009 13.7954 5.20168 14.7787 5.49918 15.7043C5.79667 16.6298 6.31142 17.4707 7.00038 18.1565C7.54923 18.7246 8.19631 19.1888 8.91038 19.5265C9.99461 20.0143 11.1864 20.2141 12.3704 20.1065C14.2889 19.8909 16.0648 18.9888 17.3704 17.5665C18.0172 16.8796 18.5195 16.0698 18.8476 15.1852C19.1756 14.3006 19.3228 13.3591 19.2804 12.4165C19.2805 12.3715 19.2713 12.3269 19.2535 12.2855C19.2357 12.2441 19.2096 12.2068 19.1768 12.1758C19.144 12.1449 19.1052 12.121 19.0628 12.1057C19.0204 12.0903 18.9754 12.0838 18.9304 12.0865C18.8857 12.0878 18.8418 12.0979 18.801 12.1162C18.7602 12.1345 18.7235 12.1607 18.6928 12.1932C18.6622 12.2257 18.6383 12.2639 18.6224 12.3056C18.6065 12.3474 18.599 12.3919 18.6004 12.4365C18.5928 13.2712 18.4181 14.0958 18.0866 14.8618C17.7551 15.6278 17.2736 16.3197 16.6704 16.8965C15.4951 18.1077 13.9219 18.8534 12.2404 18.9965C11.2456 19.0812 10.2453 18.9162 9.33038 18.5165Z" fill="#15151A"/>
</g>
<defs>
<clipPath id="clip0_14471_11062">
<rect width="24" height="24" fill="white"/>
</clipPath>
</defs>
</svg>
