<svg width="24" height="24" viewBox="0 0 24 24" fill="none" xmlns="http://www.w3.org/2000/svg">
<g clip-path="url(#clip0_14471_11041)">
<path d="M6.00162 17.9997C6.77485 18.8102 7.7065 19.453 8.73867 19.8883C9.77085 20.3235 10.8815 20.5418 12.0016 20.5297C14.272 20.4351 16.4286 19.5098 18.0616 17.9297C18.9726 17.0406 19.6582 15.947 20.0616 14.7397C20.3624 13.9742 20.4589 13.1437 20.3416 12.3297C20.313 12.2085 20.2565 12.0957 20.1767 12.0003C20.0968 11.9048 19.9958 11.8293 19.8816 11.7797C19.5089 11.7505 19.1344 11.7505 18.7616 11.7797C17.1516 11.7797 13.6916 11.9797 10.5816 12.1497C7.47162 12.3197 4.37162 12.6497 4.37162 12.6497C4.27413 12.7221 4.19395 12.8153 4.13688 12.9226C4.07981 13.0298 4.04727 13.1484 4.04162 13.2697C4.02121 13.8902 4.12315 14.5086 4.34162 15.0897C4.67765 16.1685 5.24405 17.1614 6.00162 17.9997ZM9.13162 12.9997C12.4516 12.9297 16.7016 12.8997 18.6516 12.8997H19.3116C19.2546 13.781 19.0018 14.6384 18.5716 15.4097C18.246 16.0521 17.8169 16.6365 17.3016 17.1397C15.8753 18.5368 13.9942 19.3744 12.0016 19.4997C11.0015 19.5339 10.0048 19.3635 9.07285 18.999C8.14086 18.6344 7.29313 18.0834 6.58162 17.3797C6.00899 16.7743 5.55753 16.0648 5.25162 15.2897C5.0105 14.7561 4.84879 14.1901 4.77162 13.6097C4.7627 13.4531 4.7627 13.2962 4.77162 13.1397C6.23465 13.0131 7.7035 12.9664 9.17162 12.9997H9.13162Z" fill="#15151A"/>
<path d="M23.8702 9.9975C23.7584 8.97395 23.5268 7.96706 23.1802 6.9975C22.5111 5.20293 21.3373 3.64015 19.8002 2.4975C18.2889 1.36493 16.5056 0.650927 14.6302 0.4275C14.5393 0.418679 14.4484 0.444767 14.376 0.500474C14.3036 0.556181 14.255 0.63734 14.2402 0.7275C14.2316 0.817293 14.258 0.906939 14.3139 0.977739C14.3698 1.04854 14.4509 1.09502 14.5402 1.1075C16.291 1.35183 17.9447 2.05958 19.3302 3.1575C20.7103 4.23442 21.7516 5.68538 22.3302 7.3375C22.6572 8.23952 22.8819 9.17537 23.0002 10.1275C23.0855 11.0823 23.0855 12.0427 23.0002 12.9975C22.9088 13.9393 22.6902 14.8644 22.3502 15.7475C22.0194 16.6378 21.5865 17.4868 21.0602 18.2775C19.9447 19.8728 18.3725 21.0929 16.5502 21.7775C14.7294 22.5046 12.7637 22.7957 10.8102 22.6275C9.72965 22.5347 8.66664 22.2959 7.65023 21.9175C6.64268 21.5455 5.70593 21.0044 4.88023 20.3175C2.80459 18.4763 1.46251 15.9483 1.10023 13.1975C0.63618 10.4422 1.27563 7.61494 2.88023 5.3275C3.72657 4.15217 4.78466 3.14495 6.00023 2.3575C7.23233 1.59309 8.6261 1.12736 10.0702 0.9975C10.7802 0.9275 11.4802 0.8675 12.1902 0.8675C12.6583 0.867681 13.126 0.897742 13.5902 0.9575C13.6309 0.968065 13.6733 0.969978 13.7147 0.963116C13.7562 0.956254 13.7957 0.94077 13.8307 0.917665C13.8658 0.89456 13.8956 0.864349 13.9183 0.828988C13.941 0.793627 13.9559 0.753903 13.9623 0.712387C13.9686 0.670871 13.9661 0.628488 13.9551 0.587981C13.944 0.547473 13.9245 0.509744 13.8979 0.477234C13.8713 0.444724 13.8382 0.418158 13.8007 0.399255C13.7632 0.380353 13.7222 0.369534 13.6802 0.3675C13.1917 0.273161 12.6971 0.213015 12.2002 0.1875C11.4702 0.1875 10.7402 0.1875 10.0102 0.2775C8.45623 0.416456 6.95461 0.909017 5.62023 1.7175C4.29879 2.53105 3.13927 3.58208 2.20023 4.8175C0.40675 7.2667 -0.344624 10.3261 0.110231 13.3275C0.465227 16.3482 1.90429 19.1375 4.16023 21.1775C5.08091 21.9583 6.1297 22.5741 7.26023 22.9975C8.3778 23.4082 9.54442 23.6704 10.7302 23.7775C12.8664 23.9483 15.013 23.6196 17.0002 22.8175C19.0216 22.0238 20.7499 20.6273 21.9502 18.8175C22.5134 17.9543 22.9732 17.028 23.3202 16.0575C23.6691 15.0908 23.8876 14.0819 23.9702 13.0575C24.0323 12.0366 23.9989 11.0122 23.8702 9.9975Z" fill="#15151A"/>
<path d="M5.34971 9.71503C5.87467 9.98223 6.4619 10.1031 7.04971 10.065C7.62273 10.027 8.17827 9.85215 8.66971 9.55503C9.14871 9.28345 9.56648 8.9159 9.89686 8.47539C10.2272 8.03489 10.4631 7.53091 10.5897 6.99503C10.6018 6.95169 10.6052 6.90638 10.5997 6.86173C10.5941 6.81707 10.5798 6.77396 10.5574 6.7349C10.5351 6.69583 10.5053 6.66158 10.4696 6.63414C10.4339 6.6067 10.3932 6.5866 10.3497 6.57503C10.3064 6.56293 10.2611 6.55955 10.2164 6.56509C10.1718 6.57063 10.1286 6.58497 10.0896 6.6073C10.0505 6.62962 10.0163 6.65948 9.98882 6.69514C9.96138 6.7308 9.94129 6.77155 9.92971 6.81503C9.5954 7.61714 8.95993 8.2562 8.15971 8.59503C7.79561 8.77104 7.40256 8.87947 6.99971 8.91503C6.60087 8.96888 6.19488 8.92071 5.81971 8.77503C5.48509 8.63808 5.18216 8.43386 4.92971 8.17503C4.64854 7.89515 4.39719 7.58683 4.17971 7.25503C4.14516 7.18348 4.08365 7.12856 4.00866 7.10232C3.93367 7.07607 3.85133 7.08064 3.77971 7.11503C3.70996 7.15148 3.65668 7.21309 3.63069 7.28737C3.60469 7.36165 3.60791 7.44304 3.63971 7.51503C3.85691 8.02185 4.14293 8.49632 4.48971 8.92503C4.726 9.23843 5.01743 9.50613 5.34971 9.71503Z" fill="#15151A"/>
<path d="M20.0013 6.29092C19.9118 6.2818 19.8221 6.3065 19.7499 6.36018C19.6778 6.41385 19.6283 6.4926 19.6113 6.58092C19.5652 6.85222 19.488 7.1173 19.3813 7.37092C19.2847 7.59262 19.1454 7.7931 18.9713 7.96092C18.6562 8.26543 18.2607 8.4736 17.8313 8.56092C17.4204 8.65653 16.991 8.63575 16.5913 8.50092C16.1442 8.3783 15.7401 8.13381 15.424 7.79475C15.1079 7.4557 14.8923 7.03544 14.8013 6.58092C14.792 6.50135 14.7515 6.42874 14.6886 6.37904C14.6258 6.32934 14.5458 6.30664 14.4663 6.31592C14.3867 6.3252 14.3141 6.36571 14.2644 6.42854C14.2147 6.49136 14.192 6.57135 14.2013 6.65092C14.2124 7.27868 14.4079 7.88931 14.7636 8.40674C15.1192 8.92418 15.6192 9.32557 16.2013 9.56092C16.8072 9.81408 17.4822 9.84942 18.1113 9.66092C18.7235 9.46791 19.2612 9.09077 19.6513 8.58092C19.8088 8.3521 19.9271 8.09863 20.0013 7.83092C20.1244 7.4588 20.1983 7.0722 20.2213 6.68092C20.238 6.60029 20.225 6.51632 20.1845 6.44459C20.1441 6.37286 20.0789 6.31826 20.0013 6.29092Z" fill="#15151A"/>
</g>
<defs>
<clipPath id="clip0_14471_11041">
<rect width="24" height="24" fill="white"/>
</clipPath>
</defs>
</svg>
