<svg width="24" height="24" viewBox="0 0 24 24" fill="none" xmlns="http://www.w3.org/2000/svg">
<g clip-path="url(#clip0_14471_11075)">
<path fill-rule="evenodd" clip-rule="evenodd" d="M16.1203 8.83743C15.6219 8.09756 14.9463 7.49408 14.1551 7.0819C13.364 6.66972 12.4823 6.46193 11.5903 6.47743C10.6886 6.46386 9.79149 6.60942 8.94031 6.90743C4.87031 8.46743 3.32031 15.6474 9.00031 16.9974C11.6703 17.6574 14.3703 17.7374 16.0003 15.5374C16.6636 14.5509 17.0279 13.3938 17.0491 12.2051C17.0704 11.0165 16.7479 9.84708 16.1203 8.83743ZM15.3403 14.9974C13.8903 16.7874 11.5503 16.5474 9.34031 15.9974C8.93072 15.9082 8.53419 15.767 8.16031 15.5774C5.00031 13.9374 6.28031 8.88743 9.23031 7.62743C9.84031 7.36743 13.0703 6.19743 15.3103 8.99743C15.7112 9.46909 15.9894 10.0324 16.1203 10.6374C16.3138 11.3773 16.3443 12.1504 16.2096 12.9032C16.0749 13.656 15.7783 14.3705 15.3403 14.9974Z" fill="#15151A"/>
<path fill-rule="evenodd" clip-rule="evenodd" d="M11.2205 5.00035C11.3063 4.99775 11.3877 4.96184 11.4474 4.90023C11.5072 4.83862 11.5406 4.75617 11.5405 4.67035C11.6237 4.24425 11.6804 3.81343 11.7105 3.38035C11.682 2.69308 11.533 2.01615 11.2705 1.38035C11.2304 1.32396 11.1726 1.2826 11.1063 1.26287C11.04 1.24314 10.9689 1.24617 10.9045 1.27147C10.8401 1.29677 10.786 1.34289 10.7509 1.40249C10.7157 1.46209 10.7015 1.53174 10.7105 1.60035C10.6905 1.89035 10.4805 5.00035 11.2205 5.00035Z" fill="#15151A"/>
<path fill-rule="evenodd" clip-rule="evenodd" d="M3.30877 12.183C2.86877 12.113 2.47877 11.973 2.05877 11.903C1.63877 11.833 -0.0012279 11.943 -0.0012279 12.263C-0.0912279 12.903 2.10877 13.033 3.30877 12.833C3.38519 12.8196 3.45443 12.7796 3.50431 12.7202C3.5542 12.6607 3.58154 12.5856 3.58154 12.508C3.58154 12.4304 3.5542 12.3553 3.50431 12.2959C3.45443 12.2364 3.38519 12.1965 3.30877 12.183Z" fill="#15151A"/>
<path fill-rule="evenodd" clip-rule="evenodd" d="M21.9386 11.9297C21.5186 12.0097 21.1286 12.1497 20.6986 12.2197C20.6221 12.2331 20.5529 12.2731 20.503 12.3325C20.4531 12.3919 20.4258 12.4671 20.4258 12.5447C20.4258 12.6223 20.4531 12.6974 20.503 12.7568C20.5529 12.8162 20.6221 12.8562 20.6986 12.8697C21.128 12.9455 21.5626 12.989 21.9986 12.9997C22.5486 12.9997 23.9986 12.5797 23.9986 12.2597C23.9986 11.9397 22.2586 11.8797 21.9386 11.9297Z" fill="#15151A"/>
<path fill-rule="evenodd" clip-rule="evenodd" d="M12.3287 19.5319C12.3287 19.4219 12.1587 19.3819 11.9487 19.4419C11.5787 19.5519 11.1387 21.6219 11.8587 22.5519C11.8778 22.59 11.9041 22.624 11.9363 22.6519C11.9684 22.6798 12.0058 22.7011 12.0462 22.7145C12.0866 22.728 12.1292 22.7334 12.1717 22.7303C12.2142 22.7273 12.2556 22.716 12.2937 22.6969C12.3318 22.6779 12.3658 22.6515 12.3937 22.6194C12.4216 22.5872 12.4428 22.5499 12.4563 22.5095C12.4698 22.4691 12.4751 22.4264 12.4721 22.3839C12.4691 22.3415 12.4578 22.3 12.4387 22.2619C12.5486 21.3519 12.5115 20.4302 12.3287 19.5319Z" fill="#15151A"/>
<path fill-rule="evenodd" clip-rule="evenodd" d="M6.66868 18.0505C6.27868 18.4105 4.53868 19.4805 4.31868 20.2805C4.26868 20.4605 4.25868 20.5905 4.31868 20.6905C4.37274 20.7535 4.44693 20.7959 4.52868 20.8105C5.64434 20.3566 6.56475 19.5247 7.12868 18.4605C7.15931 18.3977 7.16861 18.3267 7.15514 18.2582C7.14167 18.1898 7.10618 18.1276 7.05407 18.0811C7.00197 18.0347 6.93611 18.0065 6.86653 18.001C6.79695 17.9955 6.72747 18.0128 6.66868 18.0505Z" fill="#15151A"/>
<path fill-rule="evenodd" clip-rule="evenodd" d="M17.3695 18.1067C17.3102 18.0541 17.2341 18.0246 17.1549 18.0235C17.0757 18.0224 16.9987 18.0498 16.9381 18.1008C16.8774 18.1517 16.8371 18.2228 16.8245 18.301C16.8119 18.3792 16.8279 18.4593 16.8695 18.5267C17.0925 18.9176 17.3574 19.2831 17.6595 19.6167C18.2047 20.123 18.8255 20.5414 19.4995 20.8567C19.5804 20.8408 19.652 20.7942 19.6995 20.7267C20.3295 20.1467 17.5195 18.2467 17.3695 18.1067Z" fill="#15151A"/>
<path fill-rule="evenodd" clip-rule="evenodd" d="M5.73846 7.90813C5.79814 7.96913 5.8796 8.00393 5.96493 8.00486C6.05026 8.0058 6.13246 7.9728 6.19346 7.91313C6.25446 7.85346 6.28926 7.77199 6.2902 7.68667C6.29113 7.60134 6.25814 7.51913 6.19846 7.45813C5.53431 6.47767 4.59486 5.71568 3.49846 5.26813C3.12846 5.10813 2.93846 5.31813 2.95846 5.47813C2.95846 5.82813 4.04846 6.83813 4.49846 7.12813C4.94846 7.41813 5.33846 7.61813 5.73846 7.90813Z" fill="#15151A"/>
<path fill-rule="evenodd" clip-rule="evenodd" d="M20.9993 5.52368C20.9993 5.37368 20.8393 5.14368 20.4593 5.32368C19.3657 5.77203 18.4321 6.53847 17.7793 7.52368C17.7196 7.58468 17.6866 7.66688 17.6875 7.75221C17.6885 7.83754 17.7233 7.919 17.7843 7.97868C17.8453 8.03835 17.9275 8.07135 18.0128 8.07041C18.0981 8.06947 18.1796 8.03468 18.2393 7.97368C18.4293 7.82368 20.9993 6.24368 20.9993 5.52368Z" fill="#15151A"/>
</g>
<defs>
<clipPath id="clip0_14471_11075">
<rect width="24" height="24" fill="white"/>
</clipPath>
</defs>
</svg>
