<svg width="24" height="24" viewBox="0 0 24 24" fill="none" xmlns="http://www.w3.org/2000/svg">
<g clip-path="url(#clip0_14471_11068)">
<path d="M22.1386 6.30842C21.3273 4.96004 20.3158 3.74281 19.1386 2.69842C17.5104 1.22581 15.4605 0.302279 13.2786 0.0584172C11.1225 -0.121536 8.95685 0.268138 6.99865 1.18842C5.32784 1.94755 3.85847 3.08811 2.70865 4.51842C1.58149 5.93583 0.782348 7.58535 0.368645 9.34842C0.358305 9.39112 0.356595 9.43545 0.363617 9.47883C0.370638 9.5222 0.38625 9.56373 0.409536 9.60099C0.432821 9.63824 0.463312 9.67048 0.499221 9.69579C0.535129 9.72111 0.575731 9.739 0.618645 9.74842C0.701963 9.76345 0.78787 9.74588 0.858598 9.69935C0.929327 9.65281 0.979466 9.58088 0.998645 9.49842C1.42593 7.84187 2.22248 6.30346 3.32865 4.99842C4.40634 3.69655 5.7771 2.66849 7.32865 1.99842C9.1613 1.19814 11.1686 0.881377 13.1586 1.07842C15.124 1.32847 16.9626 2.18485 18.4186 3.52842C19.4919 4.50301 20.4182 5.62804 21.1686 6.86842C21.9386 8.07223 22.4053 9.44476 22.5286 10.8684C22.6591 12.4561 22.4721 14.0538 21.9786 15.5684C21.4754 17.0701 20.5565 18.3982 19.3286 19.3984C18.5305 20.0714 17.5956 20.5627 16.5886 20.8384C15.046 21.2816 13.4532 21.5269 11.8486 21.5684C11.7708 21.5736 11.6981 21.6088 11.6458 21.6667C11.5936 21.7245 11.5659 21.8005 11.5686 21.8784C11.5686 21.9174 11.5764 21.9559 11.5916 21.9918C11.6068 22.0276 11.6291 22.06 11.6571 22.0871C11.6851 22.1142 11.7182 22.1353 11.7546 22.1493C11.7909 22.1633 11.8297 22.1698 11.8686 22.1684C13.5315 22.1598 15.1871 21.9483 16.7986 21.5384C17.8914 21.2559 18.9132 20.7484 19.7986 20.0484C21.1914 18.9831 22.2526 17.5438 22.8586 15.8984C23.434 14.2697 23.6821 12.5433 23.5886 10.8184C23.481 9.2192 22.9832 7.67072 22.1386 6.30842Z" fill="#15151A"/>
<path d="M15.9194 15.9161C16.5984 15.6224 17.1662 15.1198 17.5402 14.4815C17.9142 13.8431 18.0751 13.1021 17.9994 12.3661C17.971 12.1979 17.9 12.0398 17.7932 11.9068C17.6865 11.7738 17.5474 11.6703 17.3894 11.6061C16.9364 11.4833 16.4624 11.4595 15.9994 11.5361C14.7794 11.6061 12.9494 11.9161 11.4594 12.0761C11.0594 12.1261 10.6794 12.1561 10.3494 12.1761C10.2805 12.1889 10.2182 12.2254 10.1733 12.2793C10.1285 12.3331 10.1039 12.401 10.1039 12.4711C10.1039 12.5412 10.1285 12.6091 10.1733 12.663C10.2182 12.7169 10.2805 12.7534 10.3494 12.7661L16.0094 12.5861H16.8394C16.8722 13.089 16.7497 13.5898 16.4886 14.0209C16.2275 14.4519 15.8403 14.7923 15.3794 14.9961C14.9295 15.3027 14.4188 15.5087 13.8822 15.6001C13.3455 15.6916 12.7954 15.6663 12.2694 15.5261C11.8591 15.3534 11.4806 15.1135 11.1494 14.8161C10.8142 14.5387 10.5358 14.1991 10.3294 13.8161C10.311 13.7754 10.2848 13.7387 10.2522 13.7081C10.2197 13.6775 10.1814 13.6537 10.1396 13.6379C10.0978 13.6221 10.0533 13.6147 10.0087 13.6161C9.96403 13.6175 9.92009 13.6277 9.87938 13.6461C9.83902 13.6635 9.80252 13.6887 9.77204 13.7204C9.74156 13.752 9.7177 13.7894 9.70186 13.8304C9.68603 13.8714 9.67854 13.9151 9.67983 13.959C9.68112 14.0029 9.69117 14.0462 9.70938 14.0861C9.92053 14.583 10.2301 15.0321 10.6194 15.4061C10.9979 15.7873 11.4331 16.1077 11.9094 16.3561C12.5685 16.5851 13.2704 16.6643 13.964 16.5882C14.6576 16.5121 15.3256 16.2825 15.9194 15.9161Z" fill="#15151A"/>
<path d="M8.32034 10.998C8.54286 11.0593 8.77782 11.0593 9.00034 10.998C9.17688 10.9362 9.33532 10.8316 9.46146 10.6935C9.58761 10.5555 9.67751 10.3882 9.7231 10.2068C9.76869 10.0255 9.76856 9.8356 9.7227 9.65429C9.67684 9.47297 9.58669 9.30588 9.46034 9.16798C8.46034 7.92798 6.46034 9.98799 7.72034 10.888C7.90724 10.9766 8.11416 11.0145 8.32034 10.998Z" fill="#15151A"/>
<path d="M19.1467 10.3596C19.3714 10.3997 19.6028 10.379 19.8167 10.2996C19.9951 10.2385 20.1553 10.1338 20.2829 9.99493C20.4104 9.85608 20.5011 9.68753 20.5469 9.50463C20.5926 9.32174 20.5918 9.13031 20.5446 8.94778C20.4975 8.76525 20.4054 8.59743 20.2767 8.4596C19.2767 7.2296 17.2767 9.2896 18.5367 10.1896C18.7206 10.3013 18.9317 10.3601 19.1467 10.3596Z" fill="#15151A"/>
<path d="M9.61821 20.1064C9.51587 19.9023 9.36042 19.7296 9.16821 19.6064C9.3645 19.2829 9.43896 18.8999 9.37821 18.5264C9.33649 18.1729 9.22063 17.8321 9.03821 17.5264C8.90324 17.3266 8.72564 17.1593 8.51821 17.0364C8.56033 16.9412 8.58732 16.84 8.59821 16.7364C8.65146 16.4087 8.62471 16.0729 8.52024 15.7578C8.41577 15.4426 8.23667 15.1574 7.9982 14.9264C7.48392 14.5957 6.87881 14.4348 6.2682 14.4664C5.51848 14.4444 4.77342 14.5914 4.0882 14.8964C4.14802 13.9967 3.89741 13.1036 3.3782 12.3664C2.4782 11.3664 0.838205 12.2364 0.668205 13.7264C0.650878 14.338 0.728466 14.9486 0.898205 15.5364C1.1782 16.5364 1.1282 16.4864 1.3782 16.8664C1.15819 17.1059 0.97303 17.3752 0.828205 17.6664C0.728205 18.0064 0.548205 18.4064 0.708205 18.6664C0.868205 18.9264 1.0082 18.8964 1.1782 18.7264C1.3482 18.5564 1.2682 18.2864 1.3182 18.1264C1.39249 17.8398 1.54077 17.5777 1.7482 17.3664C1.9082 17.1564 2.0282 17.1464 2.2182 16.9664C4.0682 15.1964 6.8382 14.9964 7.3382 15.6864C8.1882 16.8464 6.1782 16.9764 4.4382 18.0564C4.39996 18.0674 4.36449 18.0863 4.33415 18.1121C4.30382 18.1378 4.27932 18.1697 4.26229 18.2057C4.24526 18.2417 4.23608 18.2808 4.23538 18.3206C4.23468 18.3604 4.24246 18.3999 4.2582 18.4364C4.27048 18.4738 4.29023 18.5082 4.31625 18.5377C4.34227 18.5672 4.37402 18.5911 4.40957 18.608C4.44512 18.6248 4.48372 18.6342 4.52302 18.6357C4.56233 18.6371 4.60151 18.6306 4.6382 18.6164C5.0482 18.5564 5.4082 18.5564 5.7582 18.5064C6.7582 18.3364 7.0082 17.8464 7.9182 17.9964C8.07394 18.1233 8.18094 18.3002 8.22104 18.4971C8.26115 18.694 8.23188 18.8987 8.13821 19.0764C7.67827 19.3913 7.16233 19.6154 6.6182 19.7364C6.24885 19.9129 5.89143 20.1133 5.5482 20.3364C5.51022 20.3467 5.47472 20.3645 5.44387 20.389C5.41302 20.4134 5.38747 20.4438 5.36876 20.4785C5.35005 20.5131 5.33858 20.5511 5.33504 20.5903C5.33151 20.6295 5.33599 20.669 5.3482 20.7064C5.35847 20.7444 5.37636 20.7799 5.40078 20.8107C5.4252 20.8416 5.45565 20.8671 5.49026 20.8858C5.52487 20.9046 5.56293 20.916 5.60212 20.9196C5.64131 20.9231 5.6808 20.9186 5.7182 20.9064C6.07923 20.9033 6.4398 20.88 6.7982 20.8364C6.95482 20.8152 7.10892 20.7783 7.2582 20.7264C7.62227 20.5106 8.05406 20.4392 8.4682 20.5264C8.50107 20.5326 8.53227 20.5456 8.55983 20.5645C8.58738 20.5834 8.61067 20.6079 8.6282 20.6364C8.65833 20.7136 8.65833 20.7992 8.6282 20.8764C8.57544 21.1306 8.45444 21.3657 8.2782 21.5564C8.07615 21.7856 7.84793 21.9903 7.5982 22.1664C6.92951 22.6271 6.15586 22.9124 5.3482 22.9964C4.5475 23.1142 3.72982 22.9924 2.9982 22.6464C2.46425 22.3639 2.04139 21.9093 1.7982 21.3564C1.52775 20.7708 1.36839 20.1401 1.3282 19.4964C1.32695 19.4522 1.31681 19.4087 1.29839 19.3684C1.27998 19.3282 1.25366 19.2921 1.22101 19.2622C1.18836 19.2324 1.15004 19.2094 1.10833 19.1946C1.06662 19.1799 1.02236 19.1737 0.978205 19.1764C0.933529 19.1789 0.889796 19.1903 0.849514 19.2098C0.809232 19.2293 0.773193 19.2565 0.743464 19.29C0.713735 19.3234 0.6909 19.3624 0.676269 19.4047C0.661639 19.447 0.6555 19.4917 0.658205 19.5364C0.670827 20.4226 0.893599 21.2931 1.3082 22.0764C1.6118 22.6217 2.05763 23.0745 2.5982 23.3864C3.46761 23.8654 4.4589 24.0776 5.4482 23.9964C6.4418 23.9052 7.39546 23.5609 8.2182 22.9964C8.62891 22.7224 8.99345 22.3848 9.29821 21.9964C9.5254 21.7023 9.68271 21.3603 9.75821 20.9964C9.80723 20.6924 9.75819 20.3807 9.61821 20.1064ZM1.8082 16.3864L1.7182 15.3864C1.7182 14.6364 1.5882 13.6564 2.0882 13.1964C2.1882 13.1964 2.5382 12.6064 2.9682 13.4164C3.2057 13.8595 3.35192 14.3458 3.3982 14.8464C3.39781 14.8969 3.40938 14.9468 3.43198 14.992C3.45457 15.0372 3.48755 15.0764 3.5282 15.1064C2.89254 15.4422 2.31241 15.8739 1.8082 16.3864Z" fill="#15151A"/>
</g>
<defs>
<clipPath id="clip0_14471_11068">
<rect width="24" height="24" fill="white"/>
</clipPath>
</defs>
</svg>
